<svg xmlns="http://www.w3.org/2000/svg" width="32" height="32"><path fill-rule="evenodd" d="M25 4a6.994 6.994 0 0 0-5.895 3.242c-2.754.293-5.102 2.127-6.128 4.744-.283-.042-.564-.094-.85-.095a.5.5 0 0 0-.002 0c-2.876 0-5.238 2.12-5.752 4.921-.403-.102-.804-.219-1.22-.22a.5.5 0 0 0-.003 0C2.31 16.594 0 18.935 0 21.799s2.309 5.2 5.15 5.201c.116 0 .203-.012.274-.016-.06 0-.043.016.113.016h20.926c.448 0 .86-.1 1.236-.236 2.543-.733 4.299-3.08 4.301-5.748a5.993 5.993 0 0 0-2.377-4.774A6.98 6.98 0 0 0 32 11c0-3.86-3.14-7-7-7zm0 1c3.32 0 6 2.68 6 6s-2.68 6-6 6-6-2.68-6-6 2.68-6 6-6zm-.018 1.4c-1.121 0-2.029.934-2.029 2.06v1.214a3.344 3.344 0 0 0-1.238 2.588c0 1.833 1.471 3.34 3.285 3.34s3.285-1.507 3.285-3.34c0-1.794-1.411-3.264-3.172-3.326A.5.5 0 0 0 25 8.924c-.368 0-.716.075-1.047.19V8.46c0-.6.455-1.06 1.03-1.06h.035c.574 0 1.029.46 1.029 1.06a.5.5 0 1 0 1 0c0-1.127-.908-2.06-2.03-2.06h-.035zm-6.455 1.942A6.96 6.96 0 0 0 18 11c0 3.86 3.14 7 7 7 1.4 0 2.702-.417 3.797-1.127A4.995 4.995 0 0 1 31 21.018c-.003 2.234-1.468 4.187-3.588 4.793a.5.5 0 0 0-.035.011c-.306.113-.606.18-.914.18H5.537c.086 0 .046-.016-.123-.016a.5.5 0 0 0-.035 0A2.48 2.48 0 0 1 5.15 26C2.856 26 1 24.129 1 21.799c0-2.33 1.854-4.202 4.148-4.203.48 0 .953.088 1.403.254a.5.5 0 0 0 .672-.424c.232-2.573 2.354-4.53 4.9-4.531.347 0 .694.039 1.033.113a.5.5 0 0 0 .582-.332 6.497 6.497 0 0 1 4.79-4.334zM25 9.924c1.263 0 2.285 1.035 2.285 2.338 0 1.302-1.022 2.34-2.285 2.34-1.263 0-2.285-1.038-2.285-2.34 0-.806.394-1.51.992-1.93a.5.5 0 0 0 .027-.016c.05-.033.102-.058.153-.087.055-.032.11-.065.168-.092.053-.025.109-.044.164-.065a2.235 2.235 0 0 1 .379-.107c.13-.024.264-.041.402-.041zm0 .68v.001c-.543 0-1.004.449-1.004.997 0 .273.114.526.295.705a.5.5 0 0 0 .002 0c.06.058.135.095.207.136v.647a.5.5 0 1 0 1 0v-.647c.072-.042.148-.079.207-.136a.996.996 0 0 0 .297-.707c0-.548-.461-.996-1.004-.996z" color="#000" font-family="sans-serif" font-weight="400" overflow="visible" style="line-height:normal;text-indent:0;text-align:start;text-decoration-line:none;text-decoration-style:solid;text-decoration-color:#000;text-transform:none;block-progression:tb;white-space:normal;isolation:auto;mix-blend-mode:normal;solid-color:#000;solid-opacity:1"/></svg>