<svg xmlns="http://www.w3.org/2000/svg" width="62.803" height="85.184" viewBox="0 0 62.803 85.184">
  <path id="Icon_awesome-java" data-name="Icon awesome-java" d="M45.924,52.058a26.9,26.9,0,0,1,3.893-2.08s-6.439,1.165-12.844,1.7c-7.836.649-16.255.782-20.48.216-10-1.331,5.49-5.008,5.49-5.008a29.467,29.467,0,0,0-13.41,3.161C-.161,54.271,30.2,56.2,45.924,52.058ZM31.716,46.717c-3.161-7.1-13.826-13.343,0-24.257C48.962,8.851,40.118,0,40.118,0,43.695,14.058,27.54,18.318,21.7,27.052c-3.976,5.973,1.947,12.378,10.016,19.665ZM50.782,17.4c.017,0-29.148,7.287-15.223,23.325,4.109,4.725-1.081,8.984-1.081,8.984s10.432-5.39,5.64-12.129c-4.475-6.289-7.9-9.417,10.664-20.181Zm-1.015,45a2.028,2.028,0,0,1-.333.433c21.346-5.607,13.493-19.782,3.294-16.188A2.883,2.883,0,0,0,51.365,47.7a11.722,11.722,0,0,1,1.83-.5c5.158-1.081,12.561,6.9-3.427,15.206Zm7.846,10.365s2.412,1.98-2.645,3.527c-9.633,2.912-40.062,3.793-48.514.116C3.41,75.1,9.116,73.254,10.913,72.871a12.07,12.07,0,0,1,2.945-.333c-3.377-2.379-21.845,4.675-9.383,6.688C38.454,84.75,66.431,76.748,57.614,72.771ZM20.419,65.883C7.326,69.544,28.389,77.1,45.059,69.96a30.927,30.927,0,0,1-4.692-2.3c-7.437,1.414-10.881,1.514-17.635.749C17.159,67.78,20.419,65.883,20.419,65.883ZM50.333,82.055a126.107,126.107,0,0,1-38.815.6c0-.017,1.963,1.614,12.045,2.263,15.34.982,38.9-.549,39.447-7.8,0,0-1.065,2.745-12.678,4.941ZM43.079,58.729a68.729,68.729,0,0,1-22.76,1.1c-5.573-.582-1.93-3.278-1.93-3.278-14.441,4.792,8.019,10.215,28.2,4.309a10.044,10.044,0,0,1-3.51-2.13Z" transform="translate(-0.208 0)" fill="#fff"/>
</svg>
