<svg xmlns="http://www.w3.org/2000/svg" width="75.849" height="67.098" viewBox="0 0 75.849 67.098">
  <g id="online-graduation-svgrepo-com" transform="translate(0 -40.19)">
    <path id="Path_3700" data-name="Path 3700" d="M6.2,56.672l1.957-.748.371.216-1.6.9-.037.814s-1.549,9.247.168,13.059a5.215,5.215,0,0,0,4.852-1.4L9.424,58.463l-.26-.9L12.54,55.7l-.074.7-2.44,1.651,1.374.087,16.639.3,13.931-9.1,9.27-6.671L22.782,40.19,0,57.423l6.023.381ZM24.858,47.4c1.735-.5,3.388-.045,3.693,1.014s-.855,2.32-2.589,2.821-3.387.045-3.692-1.013S23.124,47.9,24.858,47.4ZM9.72,68.895l-.571.164a41.454,41.454,0,0,1-.6-6.38Z" fill="#fff"/>
    <path id="Path_3701" data-name="Path 3701" d="M100.064,192.469l-13.625-8.515v-32.7H68.162a4.146,4.146,0,0,0,.786-3.417c-.008-.029-.025-.056-.034-.084l-2.238-7.771-13.931,9.1-16.639-.3,1.333,4.629.929,3.228a4.118,4.118,0,0,0,2.429,2.451v24.862l-13.624,8.515v3.747h72.891v-3.747ZM55.552,158.818a32.6,32.6,0,0,0,8.04-3.475H82.011v24.686H44.2V160A29.391,29.391,0,0,0,55.552,158.818Zm-13.19,26.328H84.875l6.163,4.428H36.2Z" transform="translate(-24.215 -88.928)" fill="#fff"/>
  </g>
</svg>
