<svg id="Study_abroad-pana" data-name="Study abroad-pana" xmlns="http://www.w3.org/2000/svg" xmlns:xlink="http://www.w3.org/1999/xlink" width="576.32" height="604.842" viewBox="0 0 576.32 604.842">
  <defs>
    <linearGradient id="linear-gradient" x1="0.5" x2="0.5" y2="1" gradientUnits="objectBoundingBox">
      <stop offset="0" stop-color="#f71a80"/>
      <stop offset="1" stop-color="#fa2e33"/>
    </linearGradient>
  </defs>
  <g id="freepik--background-complete--inject-26" transform="translate(13.541 0.342)">
    <path id="Path_1331" data-name="Path 1331" d="M65.71,284c32.485-17.526,64.778-7.645,64.778-7.645C107.386,297.372,65.71,284,65.71,284Z" transform="translate(-45.51 40.013)" fill="#e0e0e0"/>
    <path id="Path_1332" data-name="Path 1332" d="M142.194,258.12c6.389,21.735-3.8,41.069-3.8,41.069C128.67,283.015,142.194,258.12,142.194,258.12Z" transform="translate(-19.225 34.139)" fill="#e0e0e0"/>
    <path id="Path_1333" data-name="Path 1333" d="M151.139,296.2c-24.15,12.544-49.239,5.134-49.239,5.134C118.736,286.127,151.139,296.2,151.139,296.2Z" transform="translate(-31.757 47.367)" fill="#e0e0e0"/>
    <path id="Path_1334" data-name="Path 1334" d="M100.851,261.423c.317-.4,15.953,11.565,34.928,26.7s34.114,27.752,33.8,28.152-15.953-11.565-34.928-26.717S100.534,261.809,100.851,261.423Z" transform="translate(-32.158 35.39)" fill="#e0e0e0"/>
    <path id="Path_1335" data-name="Path 1335" d="M64.43,239.58s42.063,2.249,57.408,36.612C121.8,276.192,85.917,274.757,64.43,239.58Z" transform="translate(-45.996 27.093)" fill="#e0e0e0"/>
    <path id="Path_1336" data-name="Path 1336" d="M106.973,230.39s32.43,26.883,24.274,63.619C131.247,294.009,103.274,271.459,106.973,230.39Z" transform="translate(-29.958 23.601)" fill="#e0e0e0"/>
    <path id="Path_1337" data-name="Path 1337" d="M477.519,212.171c-38.185-7.645-67.69,12.282-67.69,12.282C439.611,238.515,477.519,212.171,477.519,212.171Z" transform="translate(85.26 16.014)" fill="#e0e0e0"/>
    <path id="Path_1338" data-name="Path 1338" d="M376.68,211.48c.262,23.9,16.56,40.241,16.56,40.241C398,232.4,376.68,211.48,376.68,211.48Z" transform="translate(72.662 16.415)" fill="#e0e0e0"/>
    <path id="Path_1339" data-name="Path 1339" d="M390.78,251.712c28.221,5.189,51.226-10.033,51.226-10.033C420.354,231.591,390.78,251.712,390.78,251.712Z" transform="translate(78.02 26.816)" fill="#e0e0e0"/>
    <path id="Path_1340" data-name="Path 1340" d="M431.771,202.661c-.442-.3-12.517,16.56-26.979,37.729s-25.82,38.516-25.378,38.806,12.517-16.56,26.979-37.716S432.213,202.965,431.771,202.661Z" transform="translate(73.696 13.062)" fill="#e0e0e0"/>
    <path id="Path_1341" data-name="Path 1341" d="M460.159,169.39s-41.7,15.263-46.589,54.648C413.57,224.052,449.34,211.508,460.159,169.39Z" transform="translate(86.681 0.42)" fill="#e0e0e0"/>
    <path id="Path_1342" data-name="Path 1342" d="M405.114,173.24s-24.4,37.108-4.844,71.636C400.27,244.876,421.523,213.495,405.114,173.24Z" transform="translate(78.742 1.883)" fill="#e0e0e0"/>
    <path id="Path_1343" data-name="Path 1343" d="M403.459,76.316A67.621,67.621,0,0,0,356,84.968C376.866,94.835,403.459,76.316,403.459,76.316Z" transform="translate(64.804 -35.385)" fill="#e0e0e0"/>
    <path id="Path_1344" data-name="Path 1344" d="M332.72,75.87c.179,16.767,11.578,28.235,11.578,28.235C347.679,90.553,332.72,75.87,332.72,75.87Z" transform="translate(55.957 -35.118)" fill="#e0e0e0"/>
    <path id="Path_1345" data-name="Path 1345" d="M342.61,104.1c19.8,3.643,35.949-7.038,35.949-7.038C363.365,89.978,342.61,104.1,342.61,104.1Z" transform="translate(59.715 -27.822)" fill="#e0e0e0"/>
    <path id="Path_1346" data-name="Path 1346" d="M371.378,69.681c-.317-.207-8.791,11.647-18.934,26.469s-18.12,27.021-17.8,27.241,8.777-11.647,18.92-26.469S371.682,69.9,371.378,69.681Z" transform="translate(56.684 -37.471)" fill="#e0e0e0"/>
    <path id="Path_1347" data-name="Path 1347" d="M391.289,46.34s-29.27,10.709-32.679,38.337A56.111,56.111,0,0,0,391.289,46.34Z" transform="translate(65.795 -46.34)" fill="#e0e0e0"/>
    <path id="Path_1348" data-name="Path 1348" d="M352.673,49s-17.126,26.041-3.395,50.274A56.153,56.153,0,0,0,352.673,49Z" transform="translate(60.223 -45.329)" fill="#e0e0e0"/>
    <rect id="Rectangle_6" data-name="Rectangle 6" width="58.057" height="72.616" transform="translate(0 233.802) rotate(-84.1)" fill="#f5f5f5"/>
    <rect id="Rectangle_7" data-name="Rectangle 7" width="50.743" height="67.51" transform="translate(2.87 230.411) rotate(-84.1)" fill="#ebebeb"/>
    <path id="Path_1349" data-name="Path 1349" d="M53.15,221.283l26.7-28.953,12.5,21.128,10.93-9.481L120.3,228.224Z" transform="translate(-50.283 9.138)" fill="#e0e0e0"/>
    <path id="Path_1350" data-name="Path 1350" d="M90.7,192.7a5.313,5.313,0,1,1-4.733-5.824A5.313,5.313,0,0,1,90.7,192.7Z" transform="translate(-40.042 7.055)" fill="#e0e0e0"/>
    <rect id="Rectangle_8" data-name="Rectangle 8" width="41.925" height="52.44" transform="matrix(0.145, -0.989, 0.989, 0.145, 445.577, 504.035)" fill="#f5f5f5"/>
    <rect id="Rectangle_9" data-name="Rectangle 9" width="36.639" height="48.756" transform="matrix(0.145, -0.989, 0.989, 0.145, 447.744, 501.68)" fill="#ebebeb"/>
    <path id="Path_1351" data-name="Path 1351" d="M375.55,415.445,395.7,395.38,404.075,411l8.183-6.486,11.523,18.009Z" transform="translate(72.233 86.299)" fill="#e0e0e0"/>
    <path id="Path_1352" data-name="Path 1352" d="M403.322,396.212a3.836,3.836,0,1,1-3.243-4.361,3.836,3.836,0,0,1,3.243,4.361Z" transform="translate(79.886 84.943)" fill="#e0e0e0"/>
    <rect id="Rectangle_10" data-name="Rectangle 10" width="52.44" height="41.925" transform="matrix(0.883, -0.47, 0.47, 0.883, 20.337, 423.464)" fill="#f5f5f5"/>
    <rect id="Rectangle_11" data-name="Rectangle 11" width="48.756" height="36.639" transform="matrix(0.883, -0.47, 0.47, 0.883, 23.196, 424.945)" fill="#ebebeb"/>
    <path id="Path_1353" data-name="Path 1353" d="M80.37,386.121l4.319-28.111,16.008,7.618,2.732-10.088L123.4,363.2Z" transform="translate(-39.939 71.159)" fill="#e0e0e0"/>
    <path id="Path_1354" data-name="Path 1354" d="M94.15,350.991a3.836,3.836,0,1,1-5.189-1.587A3.836,3.836,0,0,1,94.15,350.991Z" transform="translate(-37.448 68.657)" fill="#e0e0e0"/>
  </g>
  <g id="freepik--Table--inject-26" transform="translate(0 604.124)">
    <path id="Path_1355" data-name="Path 1355" d="M617.387,484.219c0,.193-128.976.359-288.05.359s-288.077-.166-288.077-.359,128.948-.359,288.077-.359S617.387,484.053,617.387,484.219Z" transform="translate(-41.26 -483.86)" fill="#263238"/>
  </g>
  <g id="freepik--Globe--inject-26" transform="translate(109.214)">
    <path id="Path_1356" data-name="Path 1356" d="M471.909,238.623c-1.808-4.071-2.208-8.6-3.409-12.876-.635-2.3-1.711-4.761-3.878-5.782a35.949,35.949,0,0,0-4.637-1.049c-5.52-1.628-6.9-9.232-12.089-11.606a18.119,18.119,0,0,0-5.189-1.076c-6.9-.814-14.062-3.2-18.409-8.625a32.7,32.7,0,0,0-4.25-5.244c-1.78-1.38-4.513-2.042-6.238-.593l4.319,8.722a22.964,22.964,0,0,0,4.83,7.259c2.222,1.96,5.52,2.981,8.142,1.753a5.326,5.326,0,0,1,2.76-.966,2.9,2.9,0,0,1,1.78,1.145c3.767,4.14,2.539,11.04-1.132,15.332s-9.067,6.445-14.283,8.515a11.137,11.137,0,0,1-5.837,1.132c-3.616-.676-5.52-4.609-6.583-8.128-2.374-7.825-3.505-16.3-8.349-22.894-1.546-2.07-3.464-3.961-4.4-6.376-.994-2.636-.759-5.686-2.332-7.99s-5.092-3.823-5.327-6.734c-.152-2.042,1.546-3.85,3.409-4.733s3.961-1.159,5.893-1.946c.759-.317,1.6-.883,1.628-1.7,0-1.214-1.7-1.711-2.125-2.857s.842-2.47,1.38-3.726c1.2-2.857-1.78-5.741-4.664-6.9s-6.32-2.015-7.673-4.8a16.878,16.878,0,0,1-.925-4.14c-.676-3.519-3.271-6.9-6.817-7.521s-7.562,2.594-6.969,6.155c.345,1.96,1.808,3.478,2.594,5.285s.58,4.485-1.283,5.065c-3.064.938-6.017-4.664-8.57-2.76,1.049,3.574,2.056,7.162,3.119,10.778-4.03,2.042-8.846-1.656-10.557-5.851s-1.78-8.956-3.823-12.986-7.549-7.052-11.04-4.14c-.166,5.189,6.679,7.286,9.66,11.5,2.18,3.022,1.863,7.949-1.38,9.881s-8.28-1.38-7.093-4.954c.442-1.228,1.463-2.249,1.573-3.56.124-1.628-1.256-2.939-2.5-4l-5.865-4.927a12.42,12.42,0,0,0-4.14-2.622c-4.03-1.159-8.045,2.1-10.184,5.686s-3.312,7.852-6.265,10.847c-4.223,4.375-12.241,4.637-16.2,0s-1.96-13.138,3.905-14.807c2.208-.607,5.009-.552,6.182-2.5,2.029-3.478-3.8-7.907-1.78-11.413,1.546-2.677,5.617-1.38,8.6-2.36s4.609-3.878,6.362-6.445,4.43-5.092,7.452-4.43a9.315,9.315,0,0,1,.331-5.3c.787-1.628,2.995-2.76,4.457-1.628-1.49,2.443.29,5.851,2.884,7.079s5.63.925,8.487.607,6.445-1.38,6.679-4.25a9.963,9.963,0,0,1,.083-2.76c1.256-3.409,7.549,1.283,9.964-1.463,1.38-1.38-.138-3.961-2.1-4.43s-3.933.235-5.92.29-4.4-.952-4.485-2.939,2.1-3.353,2.332-5.272c.386-3.271-5.161-4.14-7.107-1.463s-1.256,6.293-.676,9.536.911,7.052-1.49,9.329c-1.021,1.546-3.671.731-4.54-.911s-.7-3.616-.856-5.52-.952-3.961-2.76-4.457a9.9,9.9,0,0,0-3.878.442c-5.078.607-8.6-5.948-7-10.792s6.182-7.99,10.64-10.46c3.257-1.808,7.314-3.505,10.557-1.67,1.5.842,2.567,2.3,4.043,3.174,2.567,1.518,5.741.966,8.694,1.021a20.355,20.355,0,0,1,12.682,4.927c1.311,1.2,2.539,3.188,1.518,4.609s-4.292,1.835-3.74,3.616a6.32,6.32,0,0,0,7.935-5.106,5.341,5.341,0,0,1,3.077,4.388,9.439,9.439,0,0,1,13.8,1.145,12.048,12.048,0,0,0,2.594,3.215c1.173.759,3.215.386,3.353-.994a2.76,2.76,0,0,0-.235-1.283c-.69-1.973-1.38-3.933-2.125-5.879,2.76-1.463,5.92.814,7.756,3.257,6.817,9.136,11.689,3.643,21.307,5.134,6.5.994,9.37,5.161,13.041,10.212,11.247,15.511,26.124,28.221,36.349,44.423,1.076,1.7,2.07,3.409,3.008,5.161-.179-.428-.317-.869-.5-1.311a179.793,179.793,0,0,0-14.876-30.236c-1.242-2.042-2.526-4.043-3.837-6.031-.828-1.228-1.67-2.484-2.512-3.671-1.076-1.573-2.222-3.091-3.353-4.609-.911-1.228-1.808-2.415-2.76-3.588-.635-.814-1.38-1.628-1.973-2.443s-1.463-1.835-2.277-2.76l-2.456-2.76a7.468,7.468,0,0,0-.787-.869c-.842-.994-1.739-1.96-2.65-2.912a.772.772,0,0,0-.262-.3c-.235-.262-.5-.524-.759-.787-.731-.814-1.518-1.6-2.277-2.387-1.242-1.283-2.525-2.567-3.836-3.8-1.09-1.076-2.194-2.1-3.326-3.119s-1.987-1.808-3.008-2.677-1.987-1.725-3.008-2.567c-1.214-1.049-2.47-2.07-3.754-3.091h0q-5.3-4.25-10.9-8.018c-.938-.635-1.835-1.256-2.76-1.863s-1.891-1.228-2.829-1.808-1.891-1.2-2.857-1.753-1.918-1.159-2.884-1.711-1.546-.911-2.332-1.38a13.157,13.157,0,0,0-1.2-.676c-1.656-.938-3.353-1.835-5.037-2.677-.842-.442-1.7-.883-2.567-1.283s-2.194-1.09-3.3-1.573a1.834,1.834,0,0,0-.5-.235c-.994-.469-1.973-.938-2.995-1.38l-4.292-1.808c-1.628-.662-3.271-1.38-4.927-1.946s-3.671-1.38-5.52-1.987-3.767-1.256-5.658-1.835-3.8-1.1-5.713-1.628c-3.8-1.021-7.645-1.932-11.523-2.76h-.207c-1.477-.29-2.967-.58-4.457-.814a1.38,1.38,0,0,0-.29,0c-.635-.124-1.311-.235-1.987-.331q-4.14-.69-8.39-1.159a9.342,9.342,0,0,1-1.021-.124c-.814-.11-1.628-.166-2.484-.262-1.863-.166-3.726-.317-5.617-.428s-3.947-.235-5.92-.29-4.14-.124-6.21-.124q-8.28,0-16.27.731c-1.283.083-2.539.207-3.8.345l-3.933.469-3.905.552c-1.311.207-2.594.414-3.905.649s-2.249.373-3.353.607c-2.76.524-5.451,1.1-8.142,1.753-1.242.29-2.5.607-3.754.966s-2.512.662-3.726,1.021c-2.084.58-4.14,1.214-6.1,1.863h0l-4.9,1.656h-.124c-1.656.593-3.257,1.2-4.885,1.849l-.262.083c-1.49.58-2.981,1.187-4.444,1.808-1.835.759-3.643,1.573-5.423,2.387-1.5.7-2.995,1.38-4.457,2.125s-3.146,1.573-4.692,2.4l-.179.083c-1.477.787-2.967,1.6-4.43,2.443s-2.995,1.725-4.485,2.663h0c-1.38.842-2.76,1.684-4.14,2.567-.524.317-1.021.662-1.546,1.007-1.463.938-2.857,1.9-4.292,2.9-1.739,1.187-3.436,2.443-5.134,3.7-1.477,1.1-2.939,2.249-4.361,3.381A183.542,183.542,0,0,0,167.81,108.6c-2.484,2.76-4.816,5.52-7.08,8.39-1.932,2.456-3.8,4.927-5.52,7.493q-2.4,3.353-4.637,6.817,2.236-3.464,4.637-6.817c.469,0,.938-.11,1.38-.138,2.622-.207,5.382-.124,7.742-1.256s3.74-3.036,5.727-4.43c5.065-3.616,13.372-4.292,14.752-10.35.455-2.042-.1-4.264.662-6.21,1.38-3.643,6.293-4.14,10.212-4.14,1.656,0,3.616.235,4.375,1.684a4.237,4.237,0,0,1-.179,3.395A31.644,31.644,0,0,1,186.5,119.472c-5.078,3.091-11.689,5.52-13.083,11.261.69,1.946,4.25,1.808,4.54,3.836.207,1.642-1.891,2.484-2.65,3.947-1.1,2.125,1.38,4.72,3.85,4.6s4.43-1.863,6.21-3.491c5.3-4.927,10.875-10.24,12.793-17.236.814-2.884,1.1-6.265,3.436-8.183a5.7,5.7,0,0,1,8.666,2.76c2.3-1.283,5.893-2.236,7.079.152a12.062,12.062,0,0,1,.5,2.76c.759,3.726,5.865,5.41,6.389,9.177.607,4.347-4.954,6.583-9.3,7.259l-11.91,1.822a11.04,11.04,0,0,0-4.9,1.573,3.836,3.836,0,0,0-1.449,4.582,11.73,11.73,0,0,0,2.042,2.1c3.257,3.271.58,10.005-4.03,10.143-1.573,0-3.119-.524-4.692-.58-4.664-.207-8.363,3.905-10.585,8.018s-3.878,8.8-7.6,11.606c-6.017,4.513-16.367,3.464-19.32,10.405-1.159,2.76-.552,5.948-.083,8.956s.662,6.293-1.076,8.777-6.21,2.967-7.493.235a6.734,6.734,0,0,1-.179-3.878q1.056-6.479,2.042-12.945c.5-3.215.938-6.8-.966-9.425-2.65-3.671-8.6-3.326-12.034-.373s-4.844,7.549-5.81,11.951a51.461,51.461,0,0,1-3.326,11.606h0c-.607,3.616-1.1,7.286-1.477,11.04s-.649,7.549-.787,11.4a16.554,16.554,0,0,0,1.477-1.38c1.835-1.891,5.52-9.908,8.873-5.975a2.981,2.981,0,0,1,0,3.643c-1.021,1.311-3.064,1.6-3.85,3.036-.966,1.684.373,3.781,1.96,4.885s3.491,1.849,4.6,3.45c2.139,3.064.1,7.7,2.167,10.819,1.78,2.677,5.52,2.857,8.8,3.2l1.1.179c.9-6.417,3.905-11.633,12.655-13.621,12.061-2.76,27.931,7.259,34.721,16.353,7.576,10.184,11.164,24.578,22.77,29.684,8.28,3.643,20.121,2.332,24.164,10.461,3.616,7.3-2.677,15.484-3.643,23.557-.607,5.341,1.145,10.654,1.546,15.98s-1.187,11.606-6.058,13.8c-2.76,1.214-6.127,1.076-8.28,3.119-3.878,3.671-.7,11.247-4.582,14.918-1.38,1.283-3.271,1.753-4.927,2.594-8.722,4.4-8.487,17.236-4.43,26.124.138.331.29.621.442.938a184.259,184.259,0,0,0,180.933,4.582h0a186.935,186.935,0,0,0,16.3-9.826,181.172,181.172,0,0,0,22.881-18.2,174.738,174.738,0,0,0,13.993-14.6c3.091-3.56,6.017-7.259,8.8-11.04,1.38-1.946,2.829-3.905,4.14-5.92a175.034,175.034,0,0,0,11.04-18.4,183.86,183.86,0,0,0,18.948-59.961c.552-4.14.994-8.28,1.283-12.572a10.6,10.6,0,0,1-7.4,3.3C477.333,246.42,473.69,242.707,471.909,238.623Z" transform="translate(-120.062 -45.797)" fill="#fafafa"/>
    <path id="Path_1357" data-name="Path 1357" d="M228.919,93.983c-3.643,2.18-5.52,6.293-8.4,9.481s-7.866,5.52-11.192,2.76a7.714,7.714,0,0,1-2.5-5.423,13.8,13.8,0,0,1,1.987-8.446c1.587-2.581,4-4.623,5.341-7.342s1.076-6.707-1.684-7.976c-1.49-.69-3.353-.428-4.678-1.38-2.374-1.753-.676-5.893,2.084-6.9s5.824-.235,8.763,0c10.681.69,18.534-6.307,26.565-12.116,6.238-4.513,19.541-9.853,26.758-5.23,2.884,1.835,4.016,6.569,1.3,8.653-1.214.925-2.884,1.132-4.016,2.167-1.38,1.228-1.559,3.271-2.332,4.927-2.015,4.319-7.852,5.893-9.66,10.281-1.132,2.636-.621,5.92-2.36,8.28-1.38,1.808-3.767,2.456-5.989,2.981L234.977,92.01A20.59,20.59,0,0,0,228.919,93.983Z" transform="translate(-87.619 -44.747)" fill="#ebebeb"/>
    <path id="Path_1358" data-name="Path 1358" d="M344.741,288.995c-4.623,6.9-5.451,15.663-6.734,23.916s-3.491,17.029-9.826,22.467-17.94,5.12-21.487-2.47c-1.9-4.14-.925-8.984-1.96-13.4-1.38-5.755-5.934-10.184-8.1-15.691-1.849-4.678-1.863-9.853-2.015-14.89-.828-27.531-7.535-56.263-26.22-76.453-2.3-2.484-4.927-4.9-8.2-5.768a10.488,10.488,0,0,0-10.75,3.712c-1.5,2-2.277,4.54-4.14,6.224-4,3.657-11.04,1.035-13.676-3.685s-2.3-10.5-1.849-15.912l1.656-20.107c.29-3.505.69-7.259,2.995-9.922,3.271-3.781,9.136-3.961,13.138-6.9,5.244-3.933,5.948-11.426,9.26-17.085s13.662-8.059,15.18-1.684c10.957-23.46,35.176,11.385,49.57,8.777,4.14-.773,8.28-2.76,12.42-2.18,7.438,1.035,11.275,9.218,13.8,16.284q6.32,17.6,12.6,35.19c1.6,4.471,3.657,9.439,8.087,11.151,3.395,1.311,7.328.317,10.75,1.559,9.039,3.284,6.1,17.5-1.173,23.791s-17.443,10.171-20.907,19.168c-2.608,6.762-.524,14.683-3.326,21.363C351.834,281.225,347.611,284.73,344.741,288.995Z" transform="translate(-78.95 -12.996)" fill="#ebebeb"/>
    <path id="Path_1359" data-name="Path 1359" d="M344.413,258.386c-2.967.414-6.472-1.049-8.735.925-1.311,1.159-1.6,3.05-2.125,4.72a10.143,10.143,0,0,1-4.209,5.741,6.32,6.32,0,0,1-6.9-.124,4.651,4.651,0,0,1-.938-6.431,29.28,29.28,0,0,1,2.567-2.1c3.933-3.726,1.242-10.626,4.237-15.056,1.766-2.608,4.54-5.258,6.486-7.907,1.49-2.042,2.042-3.643,4.789-4.14C351.617,231.6,357.026,256.62,344.413,258.386Z" transform="translate(-44.316 25.258)" fill="#ebebeb"/>
    <g id="Group_34" data-name="Group 34" transform="translate(82.745 338.238)" opacity="0.6">
      <path id="Path_1360" data-name="Path 1360" d="M180.36,291.19c1.546,1.035,3.119,2.056,4.706,3.05,1.1.7,2.208,1.38,3.353,2.042-1.145-.676-2.249-1.38-3.353-2.042C183.479,293.246,181.906,292.225,180.36,291.19Z" transform="translate(-180.36 -291.19)" fill="#263238"/>
    </g>
    <g id="Group_35" data-name="Group 35" transform="translate(1.232 177.549)" opacity="0.6">
      <path id="Path_1361" data-name="Path 1361" d="M121.33,174.75h0v1.021A3.617,3.617,0,0,1,121.33,174.75Z" transform="translate(-121.293 -174.75)" fill="#263238"/>
    </g>
    <path id="Path_1362" data-name="Path 1362" d="M145.221,227.237c-.58-5.272,1.159-10.557,1.256-15.884,0-3.671-.207-7.549-.262-11.261a49.681,49.681,0,0,1-9.356-1.311,2.76,2.76,0,0,1-1.725-.869,3.492,3.492,0,0,1-.386-1.96c-.221-4.14-4.223-6.9-7.811-8.942a29.779,29.779,0,0,0-5.686-2.76v1.283a183.54,183.54,0,0,0,11.73,58.457,176.015,176.015,0,0,0,11.275,24.095c1.808,3.353,3.795,6.652,5.865,9.881,2.567,4,5.244,7.908,8.128,11.661s5.52,7.148,8.542,10.53a183.939,183.939,0,0,0,13.041,13.469Q185.9,319.3,192.514,324.4c-10.06-26.993-19.541-54.538-36.736-77.515C151.265,240.83,146.063,234.7,145.221,227.237Z" transform="translate(-120.077 6.409)" fill="#ebebeb"/>
    <path id="Path_1363" data-name="Path 1363" d="M146.49,198.9l-1.1-.179c-3.243-.345-7.024-.524-8.8-3.2-2.07-3.119,0-7.756-2.167-10.819-1.1-1.6-3.022-2.3-4.6-3.45s-2.926-3.2-1.96-4.885c.787-1.38,2.829-1.725,3.85-3.036a2.981,2.981,0,0,0,0-3.643c-3.326-3.933-7.038,4.14-8.873,5.975a16.561,16.561,0,0,1-1.477,1.38h0v9.426c0,.9,0,2.76.083,3.643a29.776,29.776,0,0,1,5.686,2.76c3.588,2.07,7.59,4.8,7.811,8.942a3.491,3.491,0,0,0,.386,1.96,2.76,2.76,0,0,0,1.725.869,49.679,49.679,0,0,0,9.356,1.311" transform="translate(-120.035 0.468)" fill="#ebebeb"/>
    <path id="Path_1364" data-name="Path 1364" d="M139.646,201.572c0,3.712.317,7.59.262,11.261-.1,5.327-1.835,10.612-1.256,15.884.842,7.466,6.031,13.593,10.557,19.6,17.195,22.977,26.676,50.522,36.736,77.515h0c1.863,1.49,3.754,2.9,5.686,4.264,1.518,1.09,3.036,2.167,4.6,3.215s3.119,2.056,4.706,3.05c1.1.7,2.208,1.38,3.353,2.042-.152-.317-.3-.607-.442-.938-4.057-8.887-4.292-21.721,4.43-26.124,1.656-.842,3.56-1.311,4.927-2.594,3.878-3.671.7-11.247,4.582-14.918,2.18-2.042,5.589-1.9,8.28-3.119,4.871-2.249,6.445-8.487,6.058-13.8s-2.153-10.64-1.546-15.981c.966-8.073,7.259-16.257,3.643-23.557-4.043-8.128-15.856-6.817-24.164-10.46-11.606-5.106-15.18-19.5-22.77-29.684-6.707-9.08-22.6-19.155-34.666-16.408-8.749,1.987-11.758,7.2-12.655,13.621" transform="translate(-113.509 4.93)" fill="#ebebeb"/>
    <path id="Path_1365" data-name="Path 1365" d="M132.088,163.306c3.436-2.953,9.384-3.3,12.034.373,1.9,2.622,1.463,6.21.966,9.425-.676,4.306-1.38,8.625-2.042,12.945a6.735,6.735,0,0,0,.179,3.878c1.283,2.76,5.768,2.208,7.493-.235s1.546-5.81,1.076-8.777-1.076-6.155.083-8.956c2.912-6.9,13.262-5.893,19.32-10.405,3.726-2.76,5.4-7.493,7.6-11.606s5.92-8.28,10.585-8.018c1.573,0,3.119.649,4.692.58,4.609-.138,7.286-6.9,4.03-10.143a11.731,11.731,0,0,1-2.042-2.1,3.836,3.836,0,0,1,1.449-4.582,11.04,11.04,0,0,1,4.9-1.573l11.813-1.863c4.347-.676,9.908-2.912,9.3-7.259-.524-3.767-5.63-5.52-6.389-9.177a12.056,12.056,0,0,0-.5-2.76c-1.187-2.387-4.775-1.38-7.079-.152a5.7,5.7,0,0,0-8.666-2.76c-2.332,1.918-2.622,5.3-3.436,8.183-1.918,7-7.493,12.31-12.793,17.236-1.78,1.628-3.8,3.381-6.21,3.491s-4.954-2.47-3.85-4.6c.759-1.463,2.857-2.3,2.65-3.947-.29-2.029-3.85-1.891-4.54-3.836,1.38-5.782,8-8.17,13.083-11.261a31.644,31.644,0,0,0,13.386-16.436,4.237,4.237,0,0,0,.179-3.395c-.759-1.38-2.76-1.684-4.375-1.684-3.919,0-8.777.469-10.212,4.14-.759,1.946-.207,4.14-.662,6.21-1.38,6.058-9.66,6.734-14.752,10.35-1.987,1.38-3.533,3.353-5.727,4.43s-5.12,1.049-7.742,1.256a11.125,11.125,0,0,0-1.38.138q-2.4,3.353-4.637,6.817t-4.306,7.038a181.678,181.678,0,0,0-16.05,35.659c-1.38,4.347-2.76,8.791-3.781,13.276s-2.029,9.067-2.76,13.69a51.461,51.461,0,0,0,3.326-11.606C127.244,170.854,128.666,166.245,132.088,163.306Z" transform="translate(-119.42 -31.725)" fill="#ebebeb"/>
    <path id="Path_1366" data-name="Path 1366" d="M440.92,232.7s-4.637,3.381-7.4,3.326c-4.444,0-8.087-3.767-9.867-7.852s-2.208-8.6-3.409-12.876c-.635-2.3-1.711-4.761-3.878-5.782a35.948,35.948,0,0,0-4.637-1.049c-5.52-1.628-6.9-9.232-12.089-11.606a18.12,18.12,0,0,0-5.189-1.076c-6.9-.814-14.062-3.2-18.409-8.625a32.693,32.693,0,0,0-4.25-5.244c-1.78-1.38-4.513-2.042-6.238-.593l4.319,8.722a22.963,22.963,0,0,0,4.83,7.259c2.222,1.96,5.52,2.981,8.142,1.753a5.327,5.327,0,0,1,2.76-.966,2.9,2.9,0,0,1,1.78,1.145c3.767,4.14,2.539,11.04-1.132,15.332s-9.067,6.445-14.283,8.515a11.137,11.137,0,0,1-5.837,1.132c-3.616-.676-5.52-4.609-6.583-8.128-2.374-7.825-3.505-16.3-8.349-22.894-1.546-2.07-3.464-3.961-4.4-6.376-.994-2.636-.759-5.686-2.332-7.99s-5.092-3.823-5.327-6.734c-.152-2.042,1.546-3.85,3.409-4.733s3.961-1.159,5.893-1.946c.759-.317,1.6-.883,1.628-1.7,0-1.214-1.7-1.711-2.125-2.857s.842-2.47,1.38-3.726c1.2-2.857-1.78-5.741-4.664-6.9s-6.32-2.015-7.673-4.8a16.878,16.878,0,0,1-.925-4.14c-.676-3.519-3.271-6.9-6.817-7.521s-7.562,2.594-6.969,6.155c.345,1.96,1.808,3.478,2.594,5.285s.58,4.485-1.283,5.065c-3.064.938-6.017-4.664-8.57-2.76,1.049,3.574,2.056,7.162,3.119,10.778-4.03,2.042-8.846-1.656-10.557-5.851s-1.78-8.956-3.823-12.986-7.549-7.052-11.04-4.14c-.166,5.189,6.679,7.286,9.66,11.5,2.18,3.022,1.863,7.949-1.38,9.881s-8.28-1.38-7.093-4.954c.442-1.228,1.463-2.249,1.573-3.56.124-1.628-1.256-2.939-2.5-4l-5.865-4.927a12.42,12.42,0,0,0-4.14-2.622c-4.03-1.159-8.046,2.1-10.185,5.686s-3.312,7.852-6.265,10.847c-4.223,4.375-12.241,4.637-16.2,0s-1.96-13.138,3.905-14.808c2.208-.607,5.009-.552,6.183-2.5,2.029-3.478-3.8-7.907-1.78-11.413,1.546-2.677,5.617-1.38,8.6-2.36s4.609-3.878,6.362-6.445,4.43-5.092,7.452-4.43a9.314,9.314,0,0,1,.331-5.3c.787-1.628,2.995-2.76,4.457-1.628-1.49,2.443.29,5.851,2.884,7.079s5.63.925,8.487.607,6.445-1.38,6.679-4.25a9.964,9.964,0,0,1,.083-2.76c1.256-3.409,7.549,1.283,9.964-1.463,1.38-1.38-.138-3.961-2.1-4.43s-3.933.235-5.92.29-4.4-.952-4.485-2.939,2.1-3.353,2.332-5.272c.386-3.271-5.161-4.14-7.107-1.463s-1.256,6.293-.676,9.536.911,7.052-1.49,9.329c-1.021,1.546-3.671.731-4.54-.911s-.7-3.616-.856-5.52-.952-3.961-2.76-4.457a9.894,9.894,0,0,0-3.878.442c-5.078.607-8.6-5.948-7-10.792s6.182-7.99,10.64-10.46c3.257-1.808,7.314-3.505,10.557-1.67,1.5.842,2.567,2.3,4.043,3.174,2.567,1.518,5.741.966,8.694,1.021a20.355,20.355,0,0,1,12.682,4.927c1.311,1.2,2.539,3.188,1.518,4.609s-4.292,1.835-3.74,3.616a6.32,6.32,0,0,0,7.935-5.106,5.341,5.341,0,0,1,3.077,4.388,9.439,9.439,0,0,1,13.8,1.145,12.047,12.047,0,0,0,2.594,3.215c1.173.759,3.215.386,3.353-.994a2.76,2.76,0,0,0-.235-1.283c-.69-1.973-1.38-3.933-2.125-5.879,2.76-1.463,5.92.814,7.756,3.257,6.817,9.136,11.689,3.643,21.307,5.134,6.5.994,9.37,5.161,13.041,10.212,11.247,15.511,26.124,28.221,36.349,44.423,1.076,1.7,2.07,3.409,3.008,5.161h0q1.3,3.491,2.47,7.052t2.194,7.148a161.659,161.659,0,0,1,4.416,18.092s1.283,10.419,1.587,13.8c.235,2.608.469,5.2.607,7.825s.221,5.244.235,7.894Z" transform="translate(-71.808 -35.344)" fill="#ebebeb"/>
    <path id="Path_1367" data-name="Path 1367" d="M490.629,231.314s0-1.021-.11-2.995c0-.994-.069-2.236-.11-3.7a44.167,44.167,0,0,0-.262-5.106l-.511-6.458c-.235-2.374-.621-4.968-.966-7.769-.787-5.6-2.015-12.02-3.754-19.155a184.281,184.281,0,0,0-7.59-23.226,177.868,177.868,0,0,0-12.862-26.041,187.047,187.047,0,0,0-46.92-52.523,184.356,184.356,0,0,0-77.777-34.5,187.35,187.35,0,0,0-72.368.828,197.34,197.34,0,0,0-24.73,7.024,186.012,186.012,0,0,0-46.782,25.144,204.035,204.035,0,0,0-20.838,17.94,200.42,200.42,0,0,0-18.244,21.28,182.424,182.424,0,0,0-15.042,24.233c-1.063,2.153-2.263,4.25-3.229,6.458s-1.973,4.4-2.981,6.6c-1.78,4.5-3.616,9-5.092,13.648a179.525,179.525,0,0,0-7.024,28.566,198.831,198.831,0,0,0-2.429,29.712A200.851,200.851,0,0,0,123.422,261a181.029,181.029,0,0,0,7.024,28.566l1.173,3.464.593,1.725.662,1.7q1.38,3.395,2.663,6.762a59.778,59.778,0,0,0,2.995,6.61c.952,2.208,2.153,4.306,3.215,6.458A180.221,180.221,0,0,0,156.8,340.514a199.086,199.086,0,0,0,18.244,21.307,201.02,201.02,0,0,0,20.852,17.94,191.343,191.343,0,0,0,22.743,14.407,194.571,194.571,0,0,0,24.026,10.764,197.347,197.347,0,0,0,24.688,7.038,187.446,187.446,0,0,0,72.382.828A184.439,184.439,0,0,0,417.5,378.3a186.9,186.9,0,0,0,46.92-52.523,178.571,178.571,0,0,0,12.862-26.041,186.31,186.31,0,0,0,7.631-23.308c1.739-7.135,2.967-13.552,3.754-19.141.345-2.76.731-5.4.966-7.769s.359-4.54.511-6.472.235-3.629.262-5.092.083-2.76.11-3.7c0-1.973.11-2.995.11-2.995v2.995c0,.994,0,2.236-.083,3.7s0,3.174-.221,5.106-.3,4.14-.483,6.472-.593,4.968-.938,7.783a189.312,189.312,0,0,1-3.7,19.182A185.006,185.006,0,0,1,339.96,413.379a188.413,188.413,0,0,1-72.63-.773,182.643,182.643,0,0,1-48.908-17.83,193.943,193.943,0,0,1-22.839-14.449,202.324,202.324,0,0,1-20.921-18.009,200.5,200.5,0,0,1-18.326-21.363,183.2,183.2,0,0,1-15.111-24.343c-1.063-2.153-2.277-4.25-3.229-6.472L135,303.516q-1.38-3.395-2.677-6.79l-.676-1.711-.593-1.739-1.173-3.464a181.082,181.082,0,0,1-7.052-28.69,200.5,200.5,0,0,1-2.429-29.836,200.311,200.311,0,0,1,2.429-29.822,180.214,180.214,0,0,1,7.066-28.677c1.477-4.678,3.326-9.191,5.12-13.7l2.995-6.624c.952-2.222,2.167-4.319,3.229-6.472a183.044,183.044,0,0,1,15.111-24.33A200.489,200.489,0,0,1,174.676,100.3a203.851,203.851,0,0,1,20.907-18.009A185.266,185.266,0,0,1,242.5,57.074a197.066,197.066,0,0,1,24.84-7.052,188.357,188.357,0,0,1,72.616-.773A184.729,184.729,0,0,1,417.93,83.943a187.13,187.13,0,0,1,46.92,52.716,176.9,176.9,0,0,1,12.834,26.124,182.546,182.546,0,0,1,7.535,23.281,188.814,188.814,0,0,1,3.7,19.2c.345,2.76.718,5.4.938,7.783s.331,4.54.483,6.472.193,3.629.221,5.106,0,2.76.083,3.7C490.629,230.293,490.629,231.314,490.629,231.314Z" transform="translate(-120.4 -46.092)" fill="#263238"/>
  </g>
  <g id="freepik--Airplane--inject-26" transform="translate(55.601 30.067)">
    <path id="Path_1368" data-name="Path 1368" d="M235.839,143.32,234.8,94.33l-16.7,8.584-7.066,29.463Z" transform="translate(-32.342 -57.829)" fill="#263238"/>
    <path id="Path_1369" data-name="Path 1369" d="M221.784,146.97l-17.471,8.763-6.583-.759,11.509-9.067,11.33-2.277Z" transform="translate(-37.4 -39.094)" fill="#263238"/>
    <path id="Path_1370" data-name="Path 1370" d="M147.128,124.69,81.55,175.612,155.339,128.1Z" transform="translate(-81.55 -46.292)" fill="#e0e0e0"/>
    <path id="Path_1371" data-name="Path 1371" d="M188.087,138.534c-1.007.5-96.09,38.337-96.09,38.337L81.55,175.711l72.188-51.281Z" transform="translate(-81.55 -46.39)" fill="#263238"/>
    <rect id="Rectangle_12" data-name="Rectangle 12" width="14.187" height="5.699" rx="2.02" transform="translate(89.321 104.968) rotate(-157.82)" fill="#455a64"/>
    <rect id="Rectangle_13" data-name="Rectangle 13" width="14.187" height="5.699" rx="2.02" transform="translate(43.829 126.648) rotate(-157.82)" fill="#455a64"/>
    <path id="Path_1372" data-name="Path 1372" d="M117.825,129.08s28.621,3.947,24.619,18.961-32.237-.8-32.237-.8-4.14-2.4-2.581-10.405S117.825,129.08,117.825,129.08Z" transform="translate(-71.774 -44.624)" fill="#ff725e"/>
    <path id="Path_1373" data-name="Path 1373" d="M109.494,135.994a9.8,9.8,0,0,1,3.05-4.954,4.5,4.5,0,0,1,5.52-.207l.787.511a8.032,8.032,0,0,1,1.628,8.363c.1-.3.193-.607.3-.911a12.42,12.42,0,0,1-4.816,7.687,4.458,4.458,0,0,1-2.263.994,3.823,3.823,0,0,1-2.843-1.187,7.521,7.521,0,0,1-2.125-4.913A14.366,14.366,0,0,1,109.494,135.994Z" transform="translate(-71.226 -44.279)" fill="#263238"/>
    <path id="Path_1374" data-name="Path 1374" d="M298.818,155.316s11.689,11.675-10.543,14.532-60.721,1.38-104-13.4-81.862-35.59-88.611-41.028c-5.009-4.03-13.041-10.943-10.171-20.838A16.905,16.905,0,0,1,96.081,83.638,49.929,49.929,0,0,1,125.917,81.8C145.237,86.922,298.818,155.316,298.818,155.316Z" transform="translate(-80.28 -63.145)" fill="#fff"/>
    <path id="Path_1375" data-name="Path 1375" d="M298.909,155.4s-.4-.152-1.159-.483l-3.381-1.463-13-5.686-47.8-20.893c-20.2-8.763-44.271-19.21-71.14-30.443-6.721-2.76-13.607-5.644-20.7-8.446-3.533-1.38-7.148-2.76-10.778-4.14-1.849-.58-3.685-1.242-5.52-1.766a44.255,44.255,0,0,0-5.8-1.021A51.061,51.061,0,0,0,96.048,84.09a16.96,16.96,0,0,0-8.942,7.769,14.214,14.214,0,0,0-.814,11.813,25.323,25.323,0,0,0,7.466,9.66,60.431,60.431,0,0,0,10.143,6.9c7.066,4.14,14.242,7.769,21.349,11.261,14.228,6.9,28.263,13.041,41.828,18.3a339.223,339.223,0,0,0,39.234,12.958,266.042,266.042,0,0,0,35.37,6.569,219.952,219.952,0,0,0,29.629,1.573c4.361,0,8.432-.29,12.158-.593a67.359,67.359,0,0,0,10.115-1.463,13.662,13.662,0,0,0,7.079-3.685,5.216,5.216,0,0,0,1.214-2.926,6.624,6.624,0,0,0-.4-2.636,12.007,12.007,0,0,0-1.766-3.188c-.511-.662-.8-.98-.8-.98a7.187,7.187,0,0,1,.856.925,11.481,11.481,0,0,1,1.849,3.2,6.762,6.762,0,0,1,.442,2.76,5.424,5.424,0,0,1-1.228,3.05c-1.546,1.891-4.223,3.008-7.176,3.823a66.048,66.048,0,0,1-10.157,1.532c-3.726.317-7.8.607-12.185.662a222.186,222.186,0,0,1-29.7-1.477,264.347,264.347,0,0,1-35.439-6.5,338.274,338.274,0,0,1-39.33-12.82c-13.593-5.258-27.6-11.33-41.9-18.285-7.135-3.491-14.311-7.19-21.418-11.288a60.554,60.554,0,0,1-10.24-7,25.806,25.806,0,0,1-7.673-9.964,14.959,14.959,0,0,1,.856-12.42,17.637,17.637,0,0,1,9.329-8.1,51.778,51.778,0,0,1,23.9-3.105,46.2,46.2,0,0,1,5.865,1.076c1.9.538,3.754,1.2,5.617,1.78,3.629,1.38,7.273,2.76,10.792,4.14,7.093,2.76,13.98,5.672,20.7,8.473,26.855,11.261,50.895,21.749,71.071,30.595l47.735,21.087,12.945,5.81,3.353,1.518Z" transform="translate(-80.371 -63.225)" fill="#263238"/>
    <path id="Path_1376" data-name="Path 1376" d="M222.159,128.962v4.568L190.75,119.992l4.816-2.622Z" transform="translate(-40.053 -49.073)" fill="#263238"/>
    <path id="Path_1377" data-name="Path 1377" d="M212.53,124.315V132.1l-2.87-1.256V122.88Z" transform="translate(-32.867 -46.979)" fill="#fff"/>
    <path id="Path_1378" data-name="Path 1378" d="M208.147,121.925v7.769l-2.857-1.242V120.49Z" transform="translate(-34.527 -47.888)" fill="#fff"/>
    <path id="Path_1379" data-name="Path 1379" d="M203.78,120.245v7.783l-2.87-1.242V118.81Z" transform="translate(-36.192 -48.526)" fill="#fff"/>
    <path id="Path_1380" data-name="Path 1380" d="M195.167,116.775v7.783L192.31,123.3V115.34Z" transform="translate(-39.46 -49.845)" fill="#fff"/>
    <path id="Path_1381" data-name="Path 1381" d="M328.431,69.4,193.8,142.682,163.52,128.164,312.271,68.12Z" transform="translate(-50.4 -67.789)" fill="#263238"/>
    <path id="Path_1382" data-name="Path 1382" d="M169.206,116.241,312.271,68.12,163.52,128.164" transform="translate(-50.4 -67.789)" fill="#fff"/>
    <path id="Path_1383" data-name="Path 1383" d="M163.52,128.242s.235-.124.731-.331l2.167-.911,8.39-3.464,30.9-12.586,102-41.3,4.4-1.766.248.662-101.334,34-30.595,10.171-8.28,2.76-2.167.69c-.483.152-.745.207-.745.207l.731-.276,2.139-.759,8.28-2.857L210.9,102.1,312.2,67.908l.248.676-4.4,1.78-102.121,41.1-30.981,12.42-8.446,3.34-2.194.842a7.932,7.932,0,0,1-.787.179Z" transform="translate(-50.4 -67.88)" fill="#263238"/>
    <rect id="Rectangle_14" data-name="Rectangle 14" width="14.187" height="5.699" rx="2.02" transform="translate(216.207 43.184) rotate(-143.57)" fill="#455a64"/>
    <path id="Path_1384" data-name="Path 1384" d="M286.226,120.045c-.455.3-42.78,22.08-42.78,22.08l-9.246-5.189,40.559-17.526Z" transform="translate(-23.541 -48.298)" fill="#263238"/>
    <path id="Path_1385" data-name="Path 1385" d="M275.348,119.42h-2.912L230.58,134.752l4.968,2.194Z" transform="translate(-24.917 -48.294)" fill="#fff"/>
    <path id="Path_1386" data-name="Path 1386" d="M182.564,112.182l-3.933,2.967L115.73,88.28l.718-4.43Z" transform="translate(-68.561 -61.811)" fill="#263238"/>
    <path id="Path_1387" data-name="Path 1387" d="M162.417,102.225v7.783l-2.857-1.256V100.79Z" transform="translate(-51.905 -55.374)" fill="#fff"/>
    <path id="Path_1388" data-name="Path 1388" d="M157.77,100.115V107.9l-2.87-1.242V98.68Z" transform="translate(-53.676 -56.176)" fill="#fff"/>
    <path id="Path_1389" data-name="Path 1389" d="M153.12,98v7.783l-2.87-1.242V96.58Z" transform="translate(-55.443 -56.974)" fill="#fff"/>
    <path id="Path_1390" data-name="Path 1390" d="M148.457,95.891v7.783l-2.857-1.242V94.47Z" transform="translate(-57.21 -57.776)" fill="#fff"/>
    <path id="Path_1391" data-name="Path 1391" d="M143.807,93.781v7.783l-2.857-1.242V92.36Z" transform="translate(-58.977 -58.577)" fill="#fff"/>
    <path id="Path_1392" data-name="Path 1392" d="M139.16,91.671v7.783l-2.87-1.242V90.25Z" transform="translate(-60.748 -59.379)" fill="#fff"/>
    <path id="Path_1393" data-name="Path 1393" d="M134.51,89.941v7.783l-2.87-1.242V88.52Z" transform="translate(-62.515 -60.037)" fill="#fff"/>
    <path id="Path_1394" data-name="Path 1394" d="M199.56,118.505v7.783l-2.87-1.256V117.07Z" transform="translate(-37.796 -49.187)" fill="#fff"/>
    <path id="Path_1395" data-name="Path 1395" d="M129.86,87.965v7.783l-2.87-1.242V86.53Z" transform="translate(-64.282 -60.793)" fill="#fff"/>
    <path id="Path_1396" data-name="Path 1396" d="M125.137,86.105v7.783l-2.857-1.256V84.67Z" transform="translate(-66.072 -61.5)" fill="#fff"/>
    <path id="Path_1397" data-name="Path 1397" d="M120.43,84.245v7.783l-2.87-1.256V82.81Z" transform="translate(-67.866 -62.206)" fill="#fff"/>
    <path id="Path_1398" data-name="Path 1398" d="M110.223,85.5S99.472,82.372,93,83.38A26.04,26.04,0,0,1,99.155,81.5s4.057-1.463,12.13.7Z" transform="translate(-77.199 -62.887)" fill="#263238"/>
    <path id="Path_1399" data-name="Path 1399" d="M197.73,154.282l8.018-8.832,3.836.3Z" transform="translate(-37.4 -38.403)" fill="#e0e0e0"/>
    <path id="Path_1400" data-name="Path 1400" d="M197.55,154.5l.221-.235,8.032-8.832h0l3.947.3h-.083Zm8.28-9-7.783,8.57,11.509-8.28Z" transform="translate(-37.469 -38.41)" fill="#263238"/>
    <rect id="Rectangle_15" data-name="Rectangle 15" width="14.187" height="5.699" rx="2.02" transform="translate(188.055 58.216) rotate(-143.57)" fill="#455a64"/>
    <rect id="Rectangle_16" data-name="Rectangle 16" width="14.187" height="5.699" rx="2.02" transform="translate(246.019 27.171) rotate(-143.57)" fill="#455a64"/>
    <path id="Path_1401" data-name="Path 1401" d="M196.527,92.1s27.6,8.708,21.073,22.825-31.644-6.21-31.644-6.21-3.712-3.077-.787-10.7S196.527,92.1,196.527,92.1Z" transform="translate(-42.6 -58.736)" fill="#ff725e"/>
    <path id="Path_1402" data-name="Path 1402" d="M187.128,97.654a10,10,0,0,1,3.836-4.361,4.5,4.5,0,0,1,5.41.718l.7.635a8.032,8.032,0,0,1,.193,8.515l.442-.842a12.338,12.338,0,0,1-6.031,6.762,4.651,4.651,0,0,1-2.4.607,3.919,3.919,0,0,1-2.594-1.656,7.493,7.493,0,0,1-1.27-5.2A14.49,14.49,0,0,1,187.128,97.654Z" transform="translate(-42.102 -58.448)" fill="#263238"/>
    <g id="Group_36" data-name="Group 36" transform="translate(21.123 39.179)" opacity="0.1">
      <path id="Path_1403" data-name="Path 1403" d="M100.684,96.573c3.878-1.09,7.369.966,10.585,2.9,50.55,30.471,107.13,54.8,166.1,54.662a3.3,3.3,0,0,1,3.077,2.056h0a3.312,3.312,0,0,1-2.939,4.582,277.921,277.921,0,0,1-176.986-54.248c-1.9-1.38-3.947-3.119-3.629-5.755a5.106,5.106,0,0,1,3.8-4.2Z" transform="translate(-96.856 -96.27)"/>
    </g>
  </g>
  <g id="freepik--Locators--inject-26" transform="translate(143.714 69.12)">
    <path id="Path_1404" data-name="Path 1404" d="M172.641,208.617a13.621,13.621,0,1,0-25.351,6.9h0c.524.883,1.173,1.5,1.835,2.429l7.907,10.474a2.456,2.456,0,0,0,3.919,0l7.783-10.295a30.355,30.355,0,0,0,1.973-2.622h0A13.5,13.5,0,0,0,172.641,208.617Zm-13.621,5.92a5.989,5.989,0,1,1,5.989-5.989,5.989,5.989,0,0,1-5.989,5.989Z" transform="translate(-145.4 -58.636)" fill="#ff725e"/>
    <path id="Path_1405" data-name="Path 1405" d="M404.152,126.458a30.236,30.236,0,1,0-56.3,15.277h0l.1.11c1.159,1.96,2.608,3.353,4.071,5.41l17.54,23.2a5.52,5.52,0,0,0,8.722,0l17.264-22.881a65.909,65.909,0,0,0,4.388-5.81l.069-.083h0A30.057,30.057,0,0,0,404.152,126.458Zm-30.236,13.165a13.317,13.317,0,1,1,13.3-13.317,13.317,13.317,0,0,1-13.3,13.317Z" transform="translate(-70.051 -96.179)" fill="#ff725e"/>
  </g>
  <g id="freepik--Pencil--inject-26" transform="translate(66.075 338.196)">
    <path id="Path_1406" data-name="Path 1406" d="M89.14,291.16,106.418,325.7l76.508,64.309,18.823-24.5-75.128-62.708Z" transform="translate(-89.14 -291.16)" fill="#ff725e"/>
    <g id="Group_37" data-name="Group 37" opacity="0.7">
      <path id="Path_1407" data-name="Path 1407" d="M126.621,302.807a2.291,2.291,0,0,1-2.87,2.208,6.9,6.9,0,0,1-7.507,10.64,8.018,8.018,0,0,1-9.95,9.784L89.14,291.16Z" transform="translate(-89.14 -291.16)" fill="#fff"/>
    </g>
    <path id="Path_1408" data-name="Path 1408" d="M96.1,305.057s7.286,1.242,8.4-9.122L89.14,291.16Z" transform="translate(-89.14 -291.16)" fill="#ff725e"/>
    <g id="Group_38" data-name="Group 38" transform="translate(17.154 24.495)" opacity="0.3">
      <path id="Path_1409" data-name="Path 1409" d="M111.52,308.91l75.349,62.363-8.653,11.992-76.522-64.309-.124-.262a7.756,7.756,0,0,0,3.519.193,8.28,8.28,0,0,0,4.14-2.029,7.921,7.921,0,0,0,2.525-4.954A8.1,8.1,0,0,0,111.52,308.91Z" transform="translate(-101.57 -308.91)"/>
    </g>
    <g id="Group_39" data-name="Group 39" transform="translate(34.611 11.647)" opacity="0.3">
      <path id="Path_1410" data-name="Path 1410" d="M114.22,301.808l75.6,63.646,2.415-3.146L117.09,299.6a2.429,2.429,0,0,1-2.318,2.3A2.917,2.917,0,0,1,114.22,301.808Z" transform="translate(-114.22 -299.6)"/>
    </g>
    <path id="Path_1411" data-name="Path 1411" d="M104.342,309.69s0,.166.345.235a.856.856,0,0,0,.98-.552,3.3,3.3,0,0,0-.1-1.946,1.974,1.974,0,0,0-.676-.98,1.38,1.38,0,0,0-1.27-.207,1.752,1.752,0,0,0-.925,1.09,6.182,6.182,0,0,0-.29,1.628,8.735,8.735,0,0,0,.524,3.6,2.235,2.235,0,0,0,1.256,1.38,1.987,1.987,0,0,0,1.863-.414,5.354,5.354,0,0,0,1.449-3.919,7.673,7.673,0,0,0-3.974-6.9,2,2,0,0,0-1.753,0,3.656,3.656,0,0,0-1.27,1.2,10.489,10.489,0,0,0-1.38,2.912,11.8,11.8,0,0,0-.373,4.6,11.674,11.674,0,0,0,.221,1.256,3.15,3.15,0,0,1,.083.428,8.556,8.556,0,0,1-.386-1.67,11.358,11.358,0,0,1,.317-4.651,10.184,10.184,0,0,1,1.38-2.967,3.85,3.85,0,0,1,1.311-1.27,2.208,2.208,0,0,1,1.932,0,7.852,7.852,0,0,1,4.14,7.079,7.494,7.494,0,0,1-.373,2.222,3.85,3.85,0,0,1-1.173,1.863,2.194,2.194,0,0,1-2.056.442,2.429,2.429,0,0,1-1.38-1.477,9.232,9.232,0,0,1-.511-3.7,6.072,6.072,0,0,1,.317-1.67,1.946,1.946,0,0,1,1.021-1.187,1.463,1.463,0,0,1,1.38.248,2.07,2.07,0,0,1,.731,1.049,3.354,3.354,0,0,1,0,2.015.9.9,0,0,1-1.063.566.483.483,0,0,1-.3-.3Z" transform="translate(-85.56 -286.92)" fill="#fff"/>
    <path id="Path_1412" data-name="Path 1412" d="M106.452,296.34a6.823,6.823,0,0,0-.317,1.173,8.529,8.529,0,0,0,.11,3.3,20.949,20.949,0,0,0,1.725,4.609,18.092,18.092,0,0,1,1.932,5.768,10.364,10.364,0,0,1-1.145,5.92,10.253,10.253,0,0,1-3.312,3.685,10.474,10.474,0,0,1-3.05,1.38,5.959,5.959,0,0,1-1.214.221l.317-.069.814-.235a10.6,10.6,0,0,0,2.981-1.38,10.156,10.156,0,0,0,3.229-3.643,10.419,10.419,0,0,0,1.118-5.824,18.741,18.741,0,0,0-1.808-5.713,20.6,20.6,0,0,1-1.7-4.664,8.28,8.28,0,0,1,0-3.34A4.679,4.679,0,0,1,106.452,296.34Z" transform="translate(-84.565 -289.192)" fill="#fff"/>
    <path id="Path_1413" data-name="Path 1413" d="M111.857,297.94a3.23,3.23,0,0,0-1.38,1.766,17.816,17.816,0,0,0-.483,5.52,30.277,30.277,0,0,0,.7,5.589c.152.7.3,1.27.4,1.67a3.74,3.74,0,0,1,.152.607,3.965,3.965,0,0,1-.235-.593c-.124-.386-.29-.938-.469-1.642a28.675,28.675,0,0,1-.773-5.617,28.348,28.348,0,0,1,.083-3.119,9.15,9.15,0,0,1,.469-2.512,3.187,3.187,0,0,1,1.007-1.38A1.752,1.752,0,0,1,111.857,297.94Z" transform="translate(-81.304 -288.584)" fill="#fff"/>
    <path id="Path_1414" data-name="Path 1414" d="M113.983,309.7a5.647,5.647,0,0,1-.552-1.145,6.9,6.9,0,0,1-.58-3.022,3.56,3.56,0,0,1,1.38-2.76,2.622,2.622,0,0,1,.856-.414,1.094,1.094,0,0,1,.345,0,4.044,4.044,0,0,0-1.1.58,3.547,3.547,0,0,0-1.27,2.608,7.99,7.99,0,0,0,.511,2.953,10.642,10.642,0,0,1,.414,1.2Z" transform="translate(-80.131 -286.911)" fill="#fff"/>
    <path id="Path_1415" data-name="Path 1415" d="M102.9,294.91l.083.166a3.41,3.41,0,0,1,.193.5,2.2,2.2,0,0,1,.166.828,2.47,2.47,0,0,1-.331,1.076,27.823,27.823,0,0,1-1.532,2.429,21.044,21.044,0,0,0-1.6,3.105,40.35,40.35,0,0,0-1.863,6.072c-.166.69-.3,1.311-.442,1.891a4.061,4.061,0,0,1-.179.69,2.6,2.6,0,0,1,.1-.7c.083-.455.207-1.1.386-1.9a34.374,34.374,0,0,1,1.808-6.127,19.571,19.571,0,0,1,1.628-3.133c.593-.911,1.2-1.67,1.573-2.387a2.042,2.042,0,0,0,.207-1.808C102.965,295.158,102.882,294.924,102.9,294.91Z" transform="translate(-86.005 -289.735)" fill="#fff"/>
  </g>
  <g id="freepik--Passport--inject-26" transform="translate(120.956 244.943)">
    <path id="Path_1416" data-name="Path 1416" d="M0,0H74.3A11.689,11.689,0,0,1,85.988,11.689V107.71A11.689,11.689,0,0,1,74.3,119.4H0Z" transform="translate(0 39.038) rotate(-27)" fill="#455a64"/>
    <path id="Path_1417" data-name="Path 1417" d="M197.792,297.568a17.938,17.938,0,0,1-3.781,2.581,17.747,17.747,0,0,1-14.021.911,19.32,19.32,0,0,1-10.847-9.522,18.644,18.644,0,0,1,7.645-25.185,17.775,17.775,0,0,1,14.035-.9,19.513,19.513,0,0,1,12.172,23.874,18.147,18.147,0,0,1-5.2,8.239ZM173.917,269.9a17.568,17.568,0,0,0-3.6,21.045,17.94,17.94,0,0,0,10.1,8.873,16.45,16.45,0,0,0,21.321-10.861,17.94,17.94,0,0,0-1.256-13.386h0a17.94,17.94,0,0,0-10.088-8.887,16.56,16.56,0,0,0-13,.842A16.13,16.13,0,0,0,173.917,269.9Z" transform="translate(-114.451 -208.069)" fill="#fff"/>
    <rect id="Rectangle_17" data-name="Rectangle 17" width="35.411" height="1.311" transform="translate(54.535 82.287) rotate(-27)" fill="#fff"/>
    <rect id="Rectangle_18" data-name="Rectangle 18" width="1.311" height="36.584" transform="translate(61.64 59.413) rotate(-26.99)" fill="#fff"/>
    <path id="Path_1418" data-name="Path 1418" d="M191.1,299.439,189.867,299a33.769,33.769,0,0,0,2.387-13.386,20.7,20.7,0,0,0-5.962-12.944c-3.326-3.133-8.045-4.458-12.213-5.617l.359-1.27c4.306,1.214,9.191,2.567,12.765,5.934a21.735,21.735,0,0,1,6.362,13.8,35.784,35.784,0,0,1-2.47,13.924Z" transform="translate(-111.743 -207.552)" fill="#fff"/>
    <path id="Path_1419" data-name="Path 1419" d="M191.561,299.672A30.609,30.609,0,0,1,178.63,294a21.832,21.832,0,0,1-7.438-13.29c-.621-4.844,1.38-10.088,2.9-14.311l1.228.455c-1.518,4.14-3.395,9.163-2.829,13.69a20.7,20.7,0,0,0,6.983,12.42,29.215,29.215,0,0,0,12.42,5.41Z" transform="translate(-112.885 -207.316)" fill="#fff"/>
    <path id="Path_1420" data-name="Path 1420" d="M189.492,270.627a38.875,38.875,0,0,1-22,9.66l-.124-1.3a37.592,37.592,0,0,0,24.84-13.11l.994.842A36.387,36.387,0,0,1,189.492,270.627Z" transform="translate(-114.293 -207.514)" fill="#fff"/>
    <path id="Path_1421" data-name="Path 1421" d="M200.465,281.127c-10.7,1.063-20.079,5.52-25.737,12.268l-1.007-.842c5.906-6.969,15.567-11.634,26.607-12.724Z" transform="translate(-111.88 -202.213)" fill="#fff"/>
    <path id="Path_1422" data-name="Path 1422" d="M187.244,356.192c-.083,0-12.241-23.653-27.159-52.923s-26.952-53.048-26.855-53.089,12.241,23.653,27.159,52.923S187.327,356.192,187.244,356.192Z" transform="translate(-127.267 -213.48)" fill="#263238"/>
    <path id="Path_1423" data-name="Path 1423" d="M220.194,297.1c0,.083-9.136,4.844-20.493,10.626s-20.6,10.419-20.7,10.336,9.136-4.844,20.493-10.64S220.138,296.963,220.194,297.1Z" transform="translate(-109.874 -195.651)" fill="#fff"/>
    <path id="Path_1424" data-name="Path 1424" d="M215.016,301.8c0,.1-6.762,3.643-15.18,7.935s-15.3,7.714-15.346,7.618,6.762-3.629,15.18-7.921S214.975,301.718,215.016,301.8Z" transform="translate(-107.787 -193.864)" fill="#fff"/>
    <path id="Path_1425" data-name="Path 1425" d="M156.617,258.134a2.263,2.263,0,0,1-1.187,3.229l-.883.442.745,1.49-1.38.731L151,258.355l2.3-1.173a2.277,2.277,0,0,1,3.312.952Zm-1.38.731a.869.869,0,0,0-1.38-.373l-.8.4.842,1.656.8-.4a.869.869,0,0,0,.442-1.283Z" transform="translate(-120.514 -210.96)" fill="#fff"/>
    <path id="Path_1426" data-name="Path 1426" d="M159.889,259.348l-2.153,1.09.166,1.3-1.463.745-.649-6.8,1.38-.718,5.12,4.526-1.49.759Zm-1.021-.966-1.573-1.49.262,2.153Z" transform="translate(-118.693 -211.664)" fill="#fff"/>
    <path id="Path_1427" data-name="Path 1427" d="M160.9,259.741l-.124-1.38a3.409,3.409,0,0,0,1.946-.29c.593-.3.731-.607.593-.883-.455-.9-3.008,1.228-4.071-.883-.524-1.007-.207-2.208,1.3-2.981a3.988,3.988,0,0,1,2.1-.442l.166,1.38a3.174,3.174,0,0,0-1.628.276c-.607.3-.7.649-.566.925.442.869,2.995-1.242,4.057.842.5.994.193,2.208-1.38,2.967a4.139,4.139,0,0,1-2.387.469Z" transform="translate(-117.47 -212.456)" fill="#fff"/>
    <path id="Path_1428" data-name="Path 1428" d="M164.307,258.008l-.124-1.38a3.3,3.3,0,0,0,1.946-.29c.593-.3.731-.607.593-.883-.455-.9-2.995,1.228-4.14-.883-.511-1.007-.193-2.208,1.38-2.967a3.781,3.781,0,0,1,2.084-.442l.166,1.38a3.174,3.174,0,0,0-1.628.276c-.593.3-.7.649-.552.925.442.869,2.981-1.242,4.043.842.5.994.193,2.208-1.311,2.967a4.14,4.14,0,0,1-2.456.455Z" transform="translate(-116.198 -213.111)" fill="#fff"/>
    <path id="Path_1429" data-name="Path 1429" d="M171.135,250.718a2.263,2.263,0,0,1-1.187,3.229l-.883.455.759,1.477-1.38.731-2.884-5.658,2.318-1.187a2.263,2.263,0,0,1,3.257.952Zm-1.38.745a.856.856,0,0,0-1.38-.386l-.8.4.842,1.67.8-.414a.856.856,0,0,0,.469-1.27Z" transform="translate(-114.981 -213.77)" fill="#fff"/>
    <path id="Path_1430" data-name="Path 1430" d="M170.319,251.942a3.133,3.133,0,1,1,1.828,1.682,3.16,3.16,0,0,1-1.828-1.682Zm4.14-2.139a1.559,1.559,0,1,0-.552,2.318,1.615,1.615,0,0,0,.593-2.318Z" transform="translate(-113.281 -214.511)" fill="#fff"/>
    <path id="Path_1431" data-name="Path 1431" d="M178.178,249.75l-.787.4.773,1.5-1.38.731-2.884-5.658,2.3-1.173a2.277,2.277,0,0,1,3.326.938,2.125,2.125,0,0,1-.083,2.291l2,1.228-1.532.787Zm-1.463-2.9-.8.414.842,1.656.8-.414a.929.929,0,1,0-.842-1.656Z" transform="translate(-111.811 -215.382)" fill="#fff"/>
    <path id="Path_1432" data-name="Path 1432" d="M179.494,245.638l-1.546.8-.649-1.27,4.526-2.318.649,1.27-1.546.787,2.236,4.4-1.38.718Z" transform="translate(-110.519 -216.265)" fill="#fff"/>
    <path id="Path_1433" data-name="Path 1433" d="M203.159,269.15a5.382,5.382,0,0,1-4.14,6.458S198.08,270.392,203.159,269.15Z" transform="translate(-102.292 -206.271)" fill="#fff"/>
    <path id="Path_1434" data-name="Path 1434" d="M204.276,274.909a4.706,4.706,0,0,1-5.4,4.03A4.9,4.9,0,0,1,204.276,274.909Z" transform="translate(-102.319 -204.095)" fill="#fff"/>
    <path id="Path_1435" data-name="Path 1435" d="M203.937,280a5.023,5.023,0,0,1-6.707,2.581A5.23,5.23,0,0,1,203.937,280Z" transform="translate(-102.946 -202.298)" fill="#fff"/>
    <path id="Path_1436" data-name="Path 1436" d="M195.62,273.36a4.706,4.706,0,0,1,4.761,4.761A4.9,4.9,0,0,1,195.62,273.36Z" transform="translate(-103.558 -204.671)" fill="#fff"/>
    <path id="Path_1437" data-name="Path 1437" d="M196.942,277.13a3.56,3.56,0,0,1,1.38,4.954A3.712,3.712,0,0,1,196.942,277.13Z" transform="translate(-103.224 -203.239)" fill="#fff"/>
    <path id="Path_1438" data-name="Path 1438" d="M199.338,266a4.278,4.278,0,0,1-1.38,5.962A4.457,4.457,0,0,1,199.338,266Z" transform="translate(-102.901 -207.468)" fill="#fff"/>
    <path id="Path_1439" data-name="Path 1439" d="M193.4,265.461a4.14,4.14,0,0,1,4.333,4.14A4.333,4.333,0,0,1,193.4,265.461Z" transform="translate(-104.401 -207.675)" fill="#fff"/>
    <path id="Path_1440" data-name="Path 1440" d="M194,270.082a4.913,4.913,0,0,1,6.348,3.077A5.134,5.134,0,0,1,194,270.082Z" transform="translate(-104.173 -206.03)" fill="#fff"/>
    <path id="Path_1441" data-name="Path 1441" d="M195.562,289.53h0l.138-.124c.11-.1.29-.248.511-.469a12.836,12.836,0,0,0,1.642-1.946,14.562,14.562,0,0,0,1.711-3.381,18.266,18.266,0,0,0,.593-2.167l.1-.58v-4.209l-.069-.566-.11-.552v-.276a2.013,2.013,0,0,0-.069-.276l-.124-.524a15.952,15.952,0,0,0-1.38-3.519,14.779,14.779,0,0,0-1.38-2.125c-.179-.235-.345-.414-.442-.538l-.11-.138h0l.124.138.442.538a14.89,14.89,0,0,1,1.38,2.125,15.954,15.954,0,0,1,1.38,3.519,2.257,2.257,0,0,0,.138.524c.041.166,0,.179,0,.276v.276a2.609,2.609,0,0,0,.11.552v4.706l-.1.58a15.964,15.964,0,0,1-.593,2.167,14.282,14.282,0,0,1-1.711,3.381,12.073,12.073,0,0,1-1.67,1.946c-.221.221-.4.359-.524.469l-.138.11Z" transform="translate(-103.637 -206.655)" fill="#fff"/>
    <path id="Path_1442" data-name="Path 1442" d="M160.45,290.72a5.368,5.368,0,0,0,7.687.386S164.438,287.325,160.45,290.72Z" transform="translate(-116.923 -198.612)" fill="#fff"/>
    <path id="Path_1443" data-name="Path 1443" d="M164.64,295.027a4.706,4.706,0,0,0,6.431-1.987,4.885,4.885,0,0,0-6.431,1.987Z" transform="translate(-115.33 -197.386)" fill="#fff"/>
    <path id="Path_1444" data-name="Path 1444" d="M169.08,297.791a5.023,5.023,0,0,0,6.044-3.905S170.253,293.044,169.08,297.791Z" transform="translate(-113.643 -196.893)" fill="#fff"/>
    <path id="Path_1445" data-name="Path 1445" d="M167.867,287.64a4.706,4.706,0,0,0,1.049,6.652,4.913,4.913,0,0,0-1.049-6.652Z" transform="translate(-114.459 -199.245)" fill="#fff"/>
    <path id="Path_1446" data-name="Path 1446" d="M170.01,290.82a3.574,3.574,0,0,0,3.174,4.071A3.712,3.712,0,0,0,170.01,290.82Z" transform="translate(-113.304 -198.036)" fill="#fff"/>
    <path id="Path_1447" data-name="Path 1447" d="M159.82,285.974a4.278,4.278,0,0,0,5.617,2.415A4.457,4.457,0,0,0,159.82,285.974Z" transform="translate(-117.162 -199.98)" fill="#fff"/>
    <path id="Path_1448" data-name="Path 1448" d="M162.768,281.2a4.14,4.14,0,0,0,.773,5.906A4.333,4.333,0,0,0,162.768,281.2Z" transform="translate(-116.384 -201.692)" fill="#fff"/>
    <path id="Path_1449" data-name="Path 1449" d="M166.428,284.31a4.94,4.94,0,0,0-1.242,6.9,5.147,5.147,0,0,0,1.242-6.9Z" transform="translate(-115.462 -200.51)" fill="#fff"/>
    <path id="Path_1450" data-name="Path 1450" d="M180.929,296.847h-.248c-.152,0-.386.1-.676.138a14.766,14.766,0,0,1-8.377-1.214l-.524-.262-.276-.124a1.631,1.631,0,0,0-.262-.152l-.524-.3-.511-.331-.248-.179-.248-.179-.483-.359-.469-.386-.221-.193-.207-.207-.428-.386-.386-.414-.193-.207-.179-.207-.345-.414a15.608,15.608,0,0,1-2.029-3.2,16.315,16.315,0,0,1-.9-2.387c-.083-.29-.138-.524-.166-.676v-.179h0v.179a4.21,4.21,0,0,0,.152.676,16.363,16.363,0,0,0,.9,2.4,14.986,14.986,0,0,0,2.015,3.215c.11.138.235.276.345.428l.179.207.193.193.4.414.414.4.221.207.221.193.455.386.483.359.248.179.262.179.511.331.538.3a1.623,1.623,0,0,0,.262.152l.262.138.524.262a18.053,18.053,0,0,0,2.111.787,14.213,14.213,0,0,0,3.74.593,12.089,12.089,0,0,0,2.553-.207,2.709,2.709,0,0,0,.676-.138h.179Z" transform="translate(-115.942 -200.24)" fill="#fff"/>
  </g>
  <g id="freepik--Book--inject-26" transform="translate(319.5 239.208)">
    <path id="Path_1451" data-name="Path 1451" d="M460.318,393.033l-3.133,7.866s-45.72-34.776-80.882-31.878h0a7.217,7.217,0,0,1-6.224,1.145l-13.11-3.257a7.356,7.356,0,0,1-5.52-5.341h0s-26.579-21.97-62.611-18.561l-13.427.566,56.8-94.1,155.03,24.992Z" transform="translate(-271.781 -208.014)" fill="#455a64"/>
    <path id="Path_1452" data-name="Path 1452" d="M447.736,370.3l-5.23,14.3s-42.78-41.98-102.466-32.734l35.825-65.1S448.661,354.335,447.736,370.3Z" transform="translate(-247.22 -193.84)" fill="#ebebeb"/>
    <path id="Path_1453" data-name="Path 1453" d="M491.691,283.027s-48.466-59.051-112.609-19.858L340,365.938s71.416-28.649,112.36,23.46Z" transform="translate(-247.236 -207.913)" fill="#fff"/>
    <path id="Path_1454" data-name="Path 1454" d="M491.847,283.089s-.207.662-.676,1.946-1.145,3.2-2.042,5.672l-7.88,21.556c-6.9,18.644-16.629,45.251-28.387,77.281l-.179.511-.345-.428a79.282,79.282,0,0,0-47.873-29.2,109.024,109.024,0,0,0-31.409-1.38,130.485,130.485,0,0,0-16.132,2.525,123.314,123.314,0,0,0-16.022,4.554l-.566.221-.745.29.276-.745c14.2-37.357,27.6-72.506,39.068-102.756v-.1h.1a93.455,93.455,0,0,1,24.606-10.792,76.728,76.728,0,0,1,45.044,1.5,93.714,93.714,0,0,1,16.56,7.521,108.4,108.4,0,0,1,20.4,15.18c2.139,2.029,3.7,3.685,4.72,4.816.511.566.883,1.007,1.132,1.311a5.379,5.379,0,0,1,.359.455l-.4-.428-1.173-1.27c-1.035-1.1-2.608-2.76-4.761-4.733a111.411,111.411,0,0,0-20.466-15.07,94.035,94.035,0,0,0-16.491-7.4,76.315,76.315,0,0,0-44.754-1.38,92.734,92.734,0,0,0-24.4,10.7l.124-.152c-11.468,30.25-24.84,65.413-38.985,102.769l-.469-.455.58-.221a123.3,123.3,0,0,1,16.063-4.54,131.608,131.608,0,0,1,16.229-2.525,109.447,109.447,0,0,1,31.6,1.38A79.681,79.681,0,0,1,452.765,389.2l-.524.083,28.677-77.018,8.045-21.556c.938-2.484,1.656-4.388,2.153-5.686S491.847,283.089,491.847,283.089Z" transform="translate(-247.391 -207.975)" fill="#263238"/>
    <path id="Path_1455" data-name="Path 1455" d="M364.628,366.747s-43.07-44.988-90.888-28L316.024,247.1l86.941,20.617Z" transform="translate(-272.415 -208.915)" fill="#f5f5f5"/>
    <path id="Path_1456" data-name="Path 1456" d="M365.241,368.241l-.745-.787c-.428-.442-43.3-44.478-90.17-27.835l-1.546.552,43.208-93.661.552.138,87.645,20.811-.29.731Zm-69-33.755c34.845,0,63.563,26.4,68.545,31.257L402.4,268.425l-85.561-20.3-41.4,89.7a66.366,66.366,0,0,1,20.742-3.34Z" transform="translate(-272.78 -209.139)" fill="#263238"/>
    <path id="Path_1457" data-name="Path 1457" d="M401.043,274.591s-8.722-40.131-48.48-49.556l-25.682-5.354-44.671,91.4S346.394,325,362.085,376.739Z" transform="translate(-269.197 -219.335)" fill="#fff"/>
    <path id="Path_1458" data-name="Path 1458" d="M401.187,274.686a4.5,4.5,0,0,1-.166.483l-.511,1.38c-.469,1.27-1.145,3.105-2.042,5.52l-7.838,20.824c-6.817,17.94-16.56,43.5-28.1,74.051l-.331.856-.276-.883a77.753,77.753,0,0,0-9.757-20.424c-1.049-1.656-2.3-3.188-3.478-4.816a42.3,42.3,0,0,0-3.892-4.6,94.852,94.852,0,0,0-8.832-8.611c-12.7-10.833-28.566-19.182-45.789-24.744-2.636-.828-5.285-1.6-7.908-2.208l-.442-.1.193-.414c16.45-33.576,31.74-64.861,44.726-91.357l.11-.221h.235l20.921,4.375a68.561,68.561,0,0,1,18.34,5.906,63.743,63.743,0,0,1,23.46,20.355,76.911,76.911,0,0,1,9.343,17.761c.8,2.18,1.3,3.892,1.615,5.037a17.484,17.484,0,0,1,.414,1.766,1.155,1.155,0,0,0-.138-.428,10.438,10.438,0,0,1-.373-1.38c-.331-1.145-.869-2.76-1.7-5a77.818,77.818,0,0,0-9.453-17.623,63.73,63.73,0,0,0-23.391-20.121,68.352,68.352,0,0,0-18.23-5.8l-20.935-4.333.331-.166L282.672,311.3l-.248-.511c2.663.621,5.313,1.38,7.977,2.236a146.155,146.155,0,0,1,24.7,10.447,120.492,120.492,0,0,1,21.321,14.449,96.2,96.2,0,0,1,8.887,8.68c1.38,1.477,2.622,3.105,3.919,4.637a44.051,44.051,0,0,1,3.491,4.858,78.839,78.839,0,0,1,9.812,20.617h-.593c11.689-30.471,21.459-55.973,28.318-73.872,3.45-8.929,6.155-15.967,8.018-20.783.925-2.387,1.642-4.223,2.139-5.52l.566-1.38C401.1,274.851,401.187,274.686,401.187,274.686Z" transform="translate(-269.341 -219.43)" fill="#263238"/>
    <path id="Path_1459" data-name="Path 1459" d="M321.52,234.662c0,.317,4.057.994,10.295,3.146a81.1,81.1,0,0,1,22.4,11.992,70.739,70.739,0,0,1,16.56,17.816c3.243,5.12,4.54,8.556,4.913,8.487.138,0-.083-.9-.607-2.47a36.705,36.705,0,0,0-2.981-6.514,63.163,63.163,0,0,0-16.56-18.63,73.611,73.611,0,0,0-23.336-11.9,52.1,52.1,0,0,0-7.783-1.739A8.747,8.747,0,0,0,321.52,234.662Z" transform="translate(-254.258 -213.658)" fill="#e0e0e0"/>
    <path id="Path_1460" data-name="Path 1460" d="M316.6,241.751c0,.317,4.043.994,10.295,3.146a81.1,81.1,0,0,1,22.4,11.992,70.739,70.739,0,0,1,16.56,17.816c3.243,5.12,4.54,8.57,4.913,8.487.138,0-.083-.9-.607-2.47a36.683,36.683,0,0,0-2.981-6.5,63.011,63.011,0,0,0-16.56-18.644A73.252,73.252,0,0,0,327.281,243.7a48.8,48.8,0,0,0-7.783-1.739,8.584,8.584,0,0,0-2.9-.207Z" transform="translate(-256.128 -210.963)" fill="#e0e0e0"/>
    <path id="Path_1461" data-name="Path 1461" d="M313.22,250.14c0,.331,4.043,1.007,10.295,3.16a81.1,81.1,0,0,1,22.4,11.992,70.768,70.768,0,0,1,16.56,17.816c3.243,5.12,4.54,8.556,4.9,8.487s-.069-.9-.593-2.47a36.709,36.709,0,0,0-2.981-6.514,63.039,63.039,0,0,0-16.56-18.63,73.417,73.417,0,0,0-23.322-11.9,52.439,52.439,0,0,0-7.783-1.739,9.066,9.066,0,0,0-2.912-.207Z" transform="translate(-257.412 -207.774)" fill="#e0e0e0"/>
    <path id="Path_1462" data-name="Path 1462" d="M308.63,257.46c0,.331,4.043,1.007,10.295,3.16a80.729,80.729,0,0,1,22.4,11.992,70.768,70.768,0,0,1,16.56,17.816c3.243,5.12,4.54,8.556,4.9,8.487.152,0-.069-.9-.593-2.47a36.71,36.71,0,0,0-2.981-6.514,63.039,63.039,0,0,0-16.56-18.63,73.14,73.14,0,0,0-23.322-11.9,52.434,52.434,0,0,0-7.783-1.739,9.066,9.066,0,0,0-2.912-.207Z" transform="translate(-259.157 -204.992)" fill="#e0e0e0"/>
    <path id="Path_1463" data-name="Path 1463" d="M303.61,265.122c0,.317,4.043.994,10.295,3.146a81.1,81.1,0,0,1,22.4,11.992,71,71,0,0,1,16.56,17.816c3.243,5.12,4.54,8.57,4.9,8.487s-.069-.9-.593-2.47a36.683,36.683,0,0,0-2.981-6.5,62.9,62.9,0,0,0-16.56-18.644,73.058,73.058,0,0,0-23.322-11.882,49.127,49.127,0,0,0-7.783-1.739A8.585,8.585,0,0,0,303.61,265.122Z" transform="translate(-261.064 -202.083)" fill="#e0e0e0"/>
    <path id="Path_1464" data-name="Path 1464" d="M297.57,273.548c0,.331,4.4,1.049,11.178,3.491a98.141,98.141,0,0,1,11.523,5.023,118.156,118.156,0,0,1,13,7.976,107.075,107.075,0,0,1,11.413,9.66,72,72,0,0,1,7.659,9.053c3.85,5.437,5.2,9.191,5.589,9.108.138,0-.124-.966-.731-2.677a18.929,18.929,0,0,0-1.38-3.05,31.744,31.744,0,0,0-2.236-3.933,61.12,61.12,0,0,0-7.507-9.494,92.223,92.223,0,0,0-11.592-9.991,101.723,101.723,0,0,0-13.4-8.059,83.826,83.826,0,0,0-11.882-4.816,48.322,48.322,0,0,0-4.775-1.311,30.035,30.035,0,0,0-3.657-.718,10.433,10.433,0,0,0-3.2-.262Z" transform="translate(-263.359 -198.875)" fill="#e0e0e0"/>
    <path id="Path_1465" data-name="Path 1465" d="M294.66,280.94c0,.331,4.43,1.035,11.178,3.588a94.4,94.4,0,0,1,11.454,5.285,114.924,114.924,0,0,1,12.779,8.349,108.153,108.153,0,0,1,11.137,9.964,77.189,77.189,0,0,1,7.48,9.218c3.781,5.52,5.161,9.274,5.52,9.2.138,0-.124-.98-.718-2.76a19.1,19.1,0,0,0-1.38-3.077,29.311,29.311,0,0,0-2.18-3.961,65.956,65.956,0,0,0-7.3-9.66,96.286,96.286,0,0,0-11.3-10.309,103.187,103.187,0,0,0-13.193-8.446,82.187,82.187,0,0,0-11.909-5.065,43.342,43.342,0,0,0-4.789-1.38,26.22,26.22,0,0,0-3.671-.745,10.323,10.323,0,0,0-3.105-.207Z" transform="translate(-264.465 -196.07)" fill="#e0e0e0"/>
    <path id="Path_1466" data-name="Path 1466" d="M359.322,321c.221.276,3.836-1.822,10.488-3.8a68.035,68.035,0,0,1,27.6-2.1,75.238,75.238,0,0,1,27.117,9.2c6.4,3.671,9.784,6.679,10.033,6.458s-.662-.911-2.194-2.263a54.424,54.424,0,0,0-7.066-5.23,70.229,70.229,0,0,0-27.78-9.977,62.694,62.694,0,0,0-28.387,2.76,43.484,43.484,0,0,0-7.466,3.326C360.039,320.27,359.239,320.905,359.322,321Z" transform="translate(-239.895 -183.967)" fill="#e0e0e0"/>
    <path id="Path_1467" data-name="Path 1467" d="M363.232,311.537c.221.276,3.836-1.822,10.488-3.8a68.007,68.007,0,0,1,27.6-2.1,75.24,75.24,0,0,1,27.117,9.2c6.4,3.657,9.784,6.679,10.019,6.458s-.649-.911-2.18-2.277a53.315,53.315,0,0,0-7.066-5.216,70.008,70.008,0,0,0-27.807-9.977,62.915,62.915,0,0,0-28.387,2.677,44.439,44.439,0,0,0-7.466,3.34C363.949,310.806,363.149,311.44,363.232,311.537Z" transform="translate(-238.41 -187.571)" fill="#e0e0e0"/>
    <path id="Path_1468" data-name="Path 1468" d="M367.132,302.067c.221.276,3.836-1.835,10.5-3.8a67.69,67.69,0,0,1,27.6-2.1,74.963,74.963,0,0,1,27.131,9.2c6.389,3.657,9.77,6.679,10.019,6.445s-.649-.9-2.18-2.263a52.679,52.679,0,0,0-7.079-5.216,69.637,69.637,0,0,0-27.807-9.977,62.845,62.845,0,0,0-28.373,2.677,44.429,44.429,0,0,0-7.466,3.34C367.863,301.336,367.049,301.97,367.132,302.067Z" transform="translate(-236.927 -191.169)" fill="#e0e0e0"/>
    <path id="Path_1469" data-name="Path 1469" d="M371,292.585c.221.29,3.836-1.822,10.5-3.8a67.965,67.965,0,0,1,27.6-2.084,74.975,74.975,0,0,1,27.131,9.191c6.389,3.671,9.771,6.679,10.019,6.458s-.649-.9-2.18-2.263a55.747,55.747,0,0,0-7.079-5.23,70.146,70.146,0,0,0-27.807-9.978,63.025,63.025,0,0,0-28.373,2.691,44.07,44.07,0,0,0-7.48,3.34A10.666,10.666,0,0,0,371,292.585Z" transform="translate(-235.455 -194.77)" fill="#e0e0e0"/>
    <path id="Path_1470" data-name="Path 1470" d="M375,283.117c.221.29,3.836-1.822,10.488-3.8a67.828,67.828,0,0,1,27.6-2.084,74.976,74.976,0,0,1,27.131,9.191c6.389,3.671,9.77,6.679,10.019,6.458s-.649-.911-2.18-2.263a55.754,55.754,0,0,0-7.079-5.23,70.229,70.229,0,0,0-27.807-9.978,62.693,62.693,0,0,0-28.387,2.691,44.5,44.5,0,0,0-7.466,3.326C375.667,282.386,374.853,283.021,375,283.117Z" transform="translate(-233.94 -198.371)" fill="#e0e0e0"/>
    <path id="Path_1471" data-name="Path 1471" d="M378.862,273.652c.221.276,3.836-1.822,10.488-3.8a68.034,68.034,0,0,1,27.6-2.1,75.141,75.141,0,0,1,27.117,9.2c6.4,3.657,9.784,6.679,10.033,6.458s-.662-.911-2.18-2.277a57.3,57.3,0,0,0-7.038-5.244,70.008,70.008,0,0,0-27.807-9.978,62.7,62.7,0,0,0-28.359,2.719,43.485,43.485,0,0,0-7.466,3.326C379.579,272.921,378.779,273.555,378.862,273.652Z" transform="translate(-232.47 -201.974)" fill="#e0e0e0"/>
  </g>
  <g id="freepik--Character--inject-26" transform="translate(105.403 146.193)">
    <rect id="Rectangle_19" data-name="Rectangle 19" width="21.045" height="75.542" rx="7.2" transform="translate(12.436 367.043)" fill="#263238"/>
    <path id="Path_1472" data-name="Path 1472" d="M207.977,530.55H168.44c-12.1,0-25.13,1.38-30.36-5.768-4.14-5.52-3.395-12.958-3.077-19.638q1.38-28.194,2.663-56.387c.235-5.092.511-10.295,2.636-15.056s11.716-70.629,17.485-71.761h48.88Z" transform="translate(-111.14 -72.26)" fill="#263238"/>
    <path id="Path_1473" data-name="Path 1473" d="M196.472,462.393c0,.193-13.1.359-29.256.359s-29.256-.166-29.256-.359,13.1-.373,29.256-.373S196.472,462.186,196.472,462.393Z" transform="translate(-109.916 -34.228)" fill="#455a64"/>
    <path id="Path_1474" data-name="Path 1474" d="M163.569,407c.207,0,.359,17.057.359,38.1s-.152,38.116-.359,38.116-.359-17.057-.359-38.116S163.376,407,163.569,407Z" transform="translate(-100.321 -55.137)" fill="#455a64"/>
    <path id="Path_1475" data-name="Path 1475" d="M137.157,488.513a2.334,2.334,0,0,1-.083-.7,15.809,15.809,0,0,0-.1-2c-.083-1.753-.152-4.278-.221-7.4-.138-6.238-.221-14.863-.138-24.385s.3-18.161.552-24.4c.11-3.119.235-5.644.331-7.383l.138-2.015a2.512,2.512,0,0,1,.1-.69,2.5,2.5,0,0,1,0,.7v2c0,1.863,0,4.361-.124,7.4-.083,6.334-.193,14.9-.331,24.385s0,18.037-.069,24.385v9.4a2.76,2.76,0,0,1-.055.7Z" transform="translate(-110.438 -50.371)" fill="#455a64"/>
    <path id="Path_1476" data-name="Path 1476" d="M335.77,292.88s21.459,4.14,32.389,38.737c12.489,39.62,33.562,120.848,33.4,130.218s-24.067,24.412-24.067,24.412L343.25,474.834l-17.94-67.621Z" transform="translate(-38.721 -98.504)" fill="url(#linear-gradient)"/>
    <path id="Path_1477" data-name="Path 1477" d="M409.2,299.549l-52.8-19.582-3.629-4.637-68.09,2.111-5.051,3.257s-51.185,11.22-56.484,11.91c-12.42,1.587-25.434,18.672-25.434,18.672-1.38,1.587-65.633,95.124-65.633,95.124l14.973,58.913s7.079,2.5,27.435-10.847c16.119-10.585,28.649-27.338,33.12-33.852l-.069,142.9H407.033l-10.861-90.639Z" transform="translate(-112.15 -105.173)" fill="url(#linear-gradient)"/>
    <path id="Path_1478" data-name="Path 1478" d="M325.55,380.112a2.262,2.262,0,0,1,.083-.7c.11-.538.235-1.2.386-2l1.477-7.342c1.228-6.2,2.76-14.794,4.25-24.316s2.443-18.216,3.091-24.5c.317-3.064.566-5.589.759-7.452.083-.814.152-1.477.221-2.029a2.554,2.554,0,0,1,.124-.7,2.661,2.661,0,0,1,0,.718,19.277,19.277,0,0,1-.083,2.042c-.083,1.766-.262,4.319-.524,7.466-.524,6.307-1.463,15-2.9,24.55s-3.105,18.133-4.457,24.316c-.676,3.091-1.256,5.589-1.7,7.3-.207.787-.373,1.449-.524,1.973A2.9,2.9,0,0,1,325.55,380.112Z" transform="translate(-38.63 -91.591)" fill="#263238"/>
    <path id="Path_1479" data-name="Path 1479" d="M182.251,333.38a4.333,4.333,0,0,1,.179.869c.1.635.221,1.463.386,2.47.317,2.167.731,5.285,1.214,9.163.952,7.742,2.07,18.465,2.939,30.36s1.38,22.646,1.49,30.429c.083,3.905.124,7.066.124,9.246v2.512a5.4,5.4,0,0,1,0,.869,4.013,4.013,0,0,1-.1-.869c0-.649-.069-1.49-.11-2.512-.1-2.263-.207-5.4-.359-9.218-.317-7.8-.842-18.547-1.7-30.36s-1.9-22.563-2.76-30.36c-.414-3.809-.745-6.9-.98-9.177-.11-1.021-.193-1.849-.248-2.5A3.589,3.589,0,0,1,182.251,333.38Z" transform="translate(-93.086 -83.113)" fill="#263238"/>
    <path id="Path_1480" data-name="Path 1480" d="M316.374,284.576a4.429,4.429,0,0,1-.69.7c-.483.428-1.2,1.063-2.125,1.849-1.877,1.6-4.609,3.85-8.114,6.486a82.5,82.5,0,0,1-13.027,8.28,50.868,50.868,0,0,1-18.368,4.333,45.237,45.237,0,0,1-18.672-2.553,31.216,31.216,0,0,1-12.42-8.97,25.212,25.212,0,0,1-4.94-9.136,18.184,18.184,0,0,1-.58-2.76,4.056,4.056,0,0,1-.1-.98,4.527,4.527,0,0,1,.235.952,27.837,27.837,0,0,0,.7,2.76,26.22,26.22,0,0,0,5.065,8.887,31.12,31.12,0,0,0,12.337,8.68,45.306,45.306,0,0,0,18.34,2.415,51.293,51.293,0,0,0,18.12-4.209,87.071,87.071,0,0,0,13-8.073c3.533-2.581,6.32-4.775,8.28-6.293l2.208-1.753A7.835,7.835,0,0,1,316.374,284.576Z" transform="translate(-72.151 -102.703)" fill="#263238"/>
    <g id="Group_40" data-name="Group 40" transform="translate(95.43 248.017)" opacity="0.3">
      <path id="Path_1481" data-name="Path 1481" d="M233.724,331.75c-7.949,5.52-8.915,16.657-9.356,26.317C222.5,397.728,197.2,473.45,186.79,511.759,219.551,461.14,239.644,391.767,233.724,331.75Z" transform="translate(-186.79 -331.75)"/>
    </g>
    <path id="Path_1482" data-name="Path 1482" d="M238.471,283.093s-2.65,85.354-9.964,136.621S185.727,539.1,185.727,539.1L180,527.879s19.6-56.857,28.47-104.563c6.279-33.686,0-135.241,0-135.241A40.31,40.31,0,0,1,238.471,283.093Z" transform="translate(-93.94 -102.599)" fill="#263238"/>
    <path id="Path_1483" data-name="Path 1483" d="M208.732,365.911c-.193,0,.262-17.775,1.035-39.689s1.559-39.675,1.753-39.661-.262,17.775-1.035,39.689S208.925,365.924,208.732,365.911Z" transform="translate(-83.038 -100.905)" fill="#455a64"/>
    <path id="Path_1484" data-name="Path 1484" d="M132.766,348.881l-6.8,17.581s-9.025,18.4-8.28,30.9,16.45,58.181,48.3,43.374,15.9-38.875,15.9-38.875L166.921,360.9l-23.46-15.442a7.2,7.2,0,0,0-10.7,3.422Z" transform="translate(-117.638 -78.977)" fill="url(#linear-gradient)"/>
    <path id="Path_1485" data-name="Path 1485" d="M165.3,319.334c2.084,2.76,14.1-.414,16.836,5.2a10.405,10.405,0,0,1,0,9.853,11.523,11.523,0,0,1,1.214,12.42,16.063,16.063,0,0,1,1.283,8.28,12.323,12.323,0,0,1-4.043,7.3,7.645,7.645,0,0,1-3.146,7.631c-4.14,2.76-15.1,4.885-15.1,4.885l-4.5,8.28s-6.238,6.9-13.966,3.809S130.94,368.49,130.94,368.49c.345-1.973,9.025-16.339,9.025-16.339s1.725-21.376,5.52-26.579,5.52-6.251,5.52-6.251,3.312-7.135,3.312-10.2-2.843-12.862-1.132-14.849,8.708-.607,11.772,7.493S165.3,319.334,165.3,319.334Z" transform="translate(-112.584 -98.282)" fill="#ffbf9d"/>
    <path id="Path_1486" data-name="Path 1486" d="M172.835,322.992c0,.221-4.14-.5-9.218-.524s-9.2.635-9.246.414a8.888,8.888,0,0,1,2.663-.649,41.483,41.483,0,0,1,13.151.083A8.97,8.97,0,0,1,172.835,322.992Z" transform="translate(-103.68 -87.533)" fill="#ff9a6c"/>
    <path id="Path_1487" data-name="Path 1487" d="M173.232,333.233c0,.221-3.892-.566-8.694-.566s-8.666.718-8.708.5a30.939,30.939,0,0,1,17.4.069Z" transform="translate(-103.125 -83.656)" fill="#ff9a6c"/>
    <path id="Path_1488" data-name="Path 1488" d="M171.943,343.219a21.143,21.143,0,0,1-7.549,1.628,21.528,21.528,0,0,1-7.714-.5c0-.207,3.45.1,7.659-.221S171.888,343.012,171.943,343.219Z" transform="translate(-102.802 -79.387)" fill="#ff9a6c"/>
    <path id="Path_1489" data-name="Path 1489" d="M166.382,350.883a10.516,10.516,0,0,1-3.188,1.38,24.84,24.84,0,0,1-16.56-.621A10.736,10.736,0,0,1,143.57,350a36.668,36.668,0,0,0,11.344,2.663,36.352,36.352,0,0,0,11.468-1.78Z" transform="translate(-107.784 -76.797)" fill="#ff9a6c"/>
    <path id="Path_1490" data-name="Path 1490" d="M165.666,313.837c0,.235-4.457-.718-9.977-.511s-9.853,1.38-9.908,1.145a9.658,9.658,0,0,1,2.76-.925,35.447,35.447,0,0,1,7.093-.952,34.952,34.952,0,0,1,7.121.5,10.075,10.075,0,0,1,2.912.745Z" transform="translate(-106.944 -91.019)" fill="#ff9a6c"/>
    <path id="Path_1491" data-name="Path 1491" d="M165.483,418.2c-.069,0,.359-.869.966-2.443a31.268,31.268,0,0,0,1.822-6.9,32.873,32.873,0,0,0-.124-10.5,31.175,31.175,0,0,0-4.706-11.882c-2.512-3.836-5.313-7.342-6.9-11.123a45.347,45.347,0,0,1-2.9-10.281c-.5-2.995-.731-5.437-.883-7.135,0-.773-.11-1.38-.152-1.946a2.112,2.112,0,0,1,0-.676,2.622,2.622,0,0,1,.152.662,16.957,16.957,0,0,0,.276,1.932c.235,1.684.552,4.14,1.118,7.066a45.32,45.32,0,0,0,2.995,10.115c1.546,3.671,4.306,7.107,6.9,11.04a30.87,30.87,0,0,1,4.761,12.158,32.54,32.54,0,0,1,0,10.7,29.256,29.256,0,0,1-2.07,6.9,16.237,16.237,0,0,1-.869,1.766A3.4,3.4,0,0,1,165.483,418.2Z" transform="translate(-104.36 -74.779)" fill="#263238"/>
    <g id="Group_41" data-name="Group 41" transform="translate(48.717 280.103)" opacity="0.3">
      <path id="Path_1492" data-name="Path 1492" d="M152.94,355c.179.745.4,1.463.635,2.18V355Z" transform="translate(-152.94 -355)"/>
    </g>
    <g id="Group_42" data-name="Group 42" transform="translate(49.352 282.338)" opacity="0.3">
      <path id="Path_1493" data-name="Path 1493" d="M166.455,379.073c-4.733-7.286-10.378-14.255-13.055-22.453,0,6.969.331,14.062,3.243,20.355,1.918,4.14,4.844,7.687,7.286,11.523s4.444,8.211,4.14,12.751a15.717,15.717,0,0,0-.124,4.816c.4,1.573,2.015,3.008,3.533,2.47a3.878,3.878,0,0,0,2-2.884C175.853,396.516,171.589,386.994,166.455,379.073Z" transform="translate(-153.4 -356.62)"/>
    </g>
    <path id="Path_1494" data-name="Path 1494" d="M361.392,252.647c-3.16,1.78-7.4-.511-8.832-3.836s-.759-7.162.331-10.626,2.594-6.9,2.76-10.447a15.387,15.387,0,0,0-10.336-15.18c6.141-4.871,6.652-15.318.994-20.7-2.636-2.553-6.155-3.933-9.218-5.934a33.4,33.4,0,0,1-4.871-3.961,19.969,19.969,0,0,0,8.377.248,13.538,13.538,0,0,0,9.839-8.611,12.282,12.282,0,0,0-2.967-12.586,11.275,11.275,0,0,0-12.669-1.877c-3.961,2.1-6.141,6.417-8.073,10.46l-1.794,3.767c-5.589-7.4-10.847-15.056-19.458-17.65-7.825-2.36-16.229.276-24.371-.317-5.934-.428-11.62-2.581-17.526-3.215s-12.641.607-16.132,5.423c-2.056,2.829-2.76,6.486-4.775,9.3-4.278,5.8-13.51,6.583-17.029,12.876-2.857,5.106-.662,11.564-1.891,17.292-1.38,6.238-6.458,10.792-10.667,15.567s-7.866,11.371-5.52,17.292c2.07,5.2,8.142,8,10.129,13.248,1.38,3.823.386,8.073.317,12.158s1.559,8.942,5.52,9.867l45.333,11.978c15.608,6.348,31.74,12.807,48.576,12.779s34.845-8.115,41.5-23.6a9.66,9.66,0,0,1-6.514-2.926,16.133,16.133,0,0,0,8.97-10.792Z" transform="translate(-83.745 -152.029)" fill="#263238"/>
    <path id="Path_1495" data-name="Path 1495" d="M293.987,258.355c3.74-11.5,7.424-23.088,9.136-35.052s1.38-24.454-2.884-35.784c-.635-1.725-6.072-13.248-7.907-13.069-1.3.124,2.056,10.888,1.38,12.02-6.293,10.805-8,23.791-7,36.253a163.863,163.863,0,0,0,7.259,35.632" transform="translate(-53.49 -143.509)" fill="#263238"/>
    <path id="Path_1496" data-name="Path 1496" d="M274.518,161l-2.76.152a54.221,54.221,0,0,0-51.3,52.675c-.7,26.22-1.684,51.488-.759,65.509,1.918,28.98,31.74,32.071,31.74,32.071v14.987c1.283,15.29,21.087,18.037,28.594,17.374,25.93,0,39.455-21.225,39.455-21.225l1.214-105.253C321.673,187.027,304.851,161.193,274.518,161Z" transform="translate(-78.996 -148.619)" fill="#ffbf9d"/>
    <path id="Path_1497" data-name="Path 1497" d="M242.58,273.637s18.368.1,37.26-13.207c0,0-8.087,21.625-37.26,20.562Z" transform="translate(-70.159 -110.835)" fill="#ff9a6c"/>
    <path id="Path_1498" data-name="Path 1498" d="M229.81,217.665a4.14,4.14,0,0,0,4.223,3.974,3.988,3.988,0,0,0,4.14-3.974,4.14,4.14,0,0,0-4.223-3.974,3.988,3.988,0,0,0-4.14,3.974Z" transform="translate(-75.012 -128.597)" fill="#263238"/>
    <path id="Path_1499" data-name="Path 1499" d="M225.112,209.125c.538.524,3.56-1.973,8.018-2.208s7.866,1.835,8.28,1.256c.221-.248-.359-1.2-1.835-2.167a11.426,11.426,0,0,0-6.693-1.67,10.957,10.957,0,0,0-6.348,2.429C225.25,207.9,224.836,208.9,225.112,209.125Z" transform="translate(-76.828 -132.16)" fill="#263238"/>
    <path id="Path_1500" data-name="Path 1500" d="M259.09,217.735a4.14,4.14,0,0,0,4.223,3.974,3.974,3.974,0,0,0,4.14-3.974,4.14,4.14,0,0,0-4.223-3.974,3.974,3.974,0,0,0-4.14,3.974Z" transform="translate(-63.885 -128.571)" fill="#263238"/>
    <path id="Path_1501" data-name="Path 1501" d="M256.869,208.735c.552.524,3.574-1.973,8.032-2.208s7.852,1.835,8.28,1.256c.235-.248-.345-1.2-1.835-2.167a11.371,11.371,0,0,0-6.679-1.67,11.04,11.04,0,0,0-6.362,2.429C257.076,207.507,256.607,208.514,256.869,208.735Z" transform="translate(-64.756 -132.308)" fill="#263238"/>
    <path id="Path_1502" data-name="Path 1502" d="M249.749,243.176c0-.262-2.76-.593-7.328-.925-1.145,0-2.236-.221-2.47-.994a5.782,5.782,0,0,1,.58-3.422q1.38-4.223,2.912-8.86c4.016-12.613,6.9-22.963,6.348-23.115s-4.14,9.936-8.2,22.549q-1.38,4.664-2.76,8.915a6.665,6.665,0,0,0-.359,4.5,2.9,2.9,0,0,0,1.973,1.573,8.474,8.474,0,0,0,1.946.166C246.934,243.562,249.735,243.424,249.749,243.176Z" transform="translate(-71.808 -131.573)" fill="#263238"/>
    <path id="Path_1503" data-name="Path 1503" d="M259.963,234.63c-.731,0-.483,4.844-4.444,8.5s-9.149,3.409-9.149,4.14c0,.3,1.2.883,3.381.828a12.075,12.075,0,0,0,7.659-3.146,10.5,10.5,0,0,0,3.409-7.107C260.9,235.748,260.294,234.575,259.963,234.63Z" transform="translate(-68.719 -120.64)" fill="#263238"/>
    <path id="Path_1504" data-name="Path 1504" d="M256.339,195.33c.5,1.2,4.927.386,10.2.731s9.591,1.546,10.226.428c.276-.538-.511-1.642-2.291-2.76a17.871,17.871,0,0,0-15.567-.869C257.029,193.757,256.118,194.764,256.339,195.33Z" transform="translate(-64.943 -137.037)" fill="#263238"/>
    <path id="Path_1505" data-name="Path 1505" d="M225.888,198.407c.842.966,3.85-.248,7.549-.5s6.9.317,7.535-.787c.29-.538-.262-1.518-1.684-2.4a10.405,10.405,0,0,0-6.224-1.38,10.6,10.6,0,0,0-5.934,2.36C225.888,196.834,225.515,197.9,225.888,198.407Z" transform="translate(-76.555 -136.346)" fill="#263238"/>
    <path id="Path_1506" data-name="Path 1506" d="M291.89,217.866c.483-.248,19.651-6.983,20.079,12.917s-19.638,16.229-19.679,15.663S291.89,217.866,291.89,217.866Z" transform="translate(-51.421 -127.501)" fill="#ffbf9d"/>
    <path id="Path_1507" data-name="Path 1507" d="M296.465,237.019c.083,0,.359.235.952.483a3.423,3.423,0,0,0,2.581,0c2.1-.814,3.8-4.14,3.809-7.783a11.4,11.4,0,0,0-1.076-4.94,4.016,4.016,0,0,0-2.663-2.608,1.766,1.766,0,0,0-2.029.994c-.248.566-.124.966-.221.994s-.442-.317-.29-1.145a2.139,2.139,0,0,1,.745-1.256,2.594,2.594,0,0,1,1.9-.552,4.858,4.858,0,0,1,3.7,3.008,12.034,12.034,0,0,1,1.38,5.52c0,4-2.015,7.811-4.871,8.694a3.712,3.712,0,0,1-3.188-.455C296.52,237.488,296.4,237.047,296.465,237.019Z" transform="translate(-49.689 -125.747)" fill="#ff9a6c"/>
    <path id="Path_1508" data-name="Path 1508" d="M229.319,181.7c-3.243-1.739,6.293-12.3,14.159-15.994,11.9-5.52,30.126-9.149,41.193-6.169,13.331,3.6,24.44,10.06,31.271,22.08s9.508,26.055,9.287,39.855c0,4.14-.442,8.611-2.636,12.2-2.76,4.43-8.032,7.273-7.714,13.331a8.418,8.418,0,0,1-1.987,6.044c-3.588,3.919-8.1.331-10.2-3.284-4.471-7.742-5.078-17.043-5.52-25.972-.359-6.348-.69-12.82,1.021-18.948.925-3.326,2.456-6.472,3.2-9.853s.593-7.2-1.546-9.922a12.8,12.8,0,0,0-1.628-1.615,20.783,20.783,0,0,0-20.7-3.657c-11.164,4.14-30.222,10.281-35.273,6.541-7.259-5.382-9.025-8.929-9.025-8.929Z" transform="translate(-75.446 -149.583)" fill="#263238"/>
    <path id="Path_1509" data-name="Path 1509" d="M281.106,157.92c-11.04-3.505-23.46-3.16-33.6,2.277-5.4,2.884-10.24,7.466-11.827,13.372s1.035,13.138,6.734,15.373l.386.235c8.528,2.76,14.035,1.546,22.467-1.49,7.079-2.567,13.372-7.038,20.466-9.563a40.489,40.489,0,0,1,23.667-.994C301.668,168.56,292.091,161.439,281.106,157.92Z" transform="translate(-72.956 -150.659)" fill="#263238"/>
    <path id="Path_1510" data-name="Path 1510" d="M306.274,174.287c-.166.152-1.766-1.753-5-3.988a28.568,28.568,0,0,0-6.044-3.229,18.478,18.478,0,0,0-8.087-1.38,27.035,27.035,0,0,0-13.842,5.741c-3.077,2.443-4.5,4.485-4.692,4.347s.221-.607.869-1.532a21.261,21.261,0,0,1,3.229-3.533,25.682,25.682,0,0,1,14.394-6.334,18.975,18.975,0,0,1,8.653,1.546,25.944,25.944,0,0,1,6.141,3.616C305.045,172.051,306.425,174.218,306.274,174.287Z" transform="translate(-60.284 -147.347)" fill="#455a64"/>
    <path id="Path_1511" data-name="Path 1511" d="M304.365,176.661c.152,0-.193,2.277-1.5,5.686a41.4,41.4,0,0,1-18.589,20.921,16.559,16.559,0,0,1-5.451,2.18c-.235-.386,8.349-3.643,15.58-11.91S303.91,176.481,304.365,176.661Z" transform="translate(-56.389 -142.669)" fill="#455a64"/>
    <path id="Path_1512" data-name="Path 1512" d="M312.776,179a6.9,6.9,0,0,1,.083,2.263,35.64,35.64,0,0,1-.869,6.113,41.525,41.525,0,0,1-25.861,29.67,36.376,36.376,0,0,1-5.934,1.7,7.012,7.012,0,0,1-2.194.276c0-.235,3.133-.787,7.839-2.76a43.8,43.8,0,0,0,25.309-28.98C312.5,182.2,312.5,179,312.776,179Z" transform="translate(-56.699 -141.779)" fill="#455a64"/>
    <path id="Path_1513" data-name="Path 1513" d="M259.889,156c0,.221-2.056.7-5.272,1.987a43.1,43.1,0,0,0-20.41,16.822c-1.877,2.9-2.76,4.885-2.967,4.789a16.2,16.2,0,0,1,2.153-5.272,37.8,37.8,0,0,1,8.86-10.557A37.358,37.358,0,0,1,254.3,157.1,15.484,15.484,0,0,1,259.889,156Z" transform="translate(-74.468 -150.52)" fill="#455a64"/>
    <path id="Path_1514" data-name="Path 1514" d="M311.87,157.791c.331,0-.538,5.768-5.037,11.04s-9.991,7.217-10.033,6.9,4.816-2.663,9.011-7.742S311.483,157.653,311.87,157.791Z" transform="translate(-49.555 -149.84)" fill="#455a64"/>
    <path id="Path_1515" data-name="Path 1515" d="M262.51,225.615a.745.745,0,1,1-.745-.745A.745.745,0,0,1,262.51,225.615Z" transform="translate(-63.152 -124.348)" fill="#ff9a6c"/>
    <circle id="Ellipse_4" data-name="Ellipse 4" cx="0.745" cy="0.745" r="0.745" transform="translate(203.347 100.522)" fill="#ff9a6c"/>
    <rect id="Rectangle_20" data-name="Rectangle 20" width="94.917" height="128.934" rx="2" transform="translate(202.899 214.385) rotate(16.63)" fill="#455a64"/>
    <path id="Path_1516" data-name="Path 1516" d="M243.406,388.838a7.409,7.409,0,1,1,8.929-7.093h-1.38a6.113,6.113,0,1,0-7.286,5.782Z" transform="translate(-72.144 -67.611)" fill="#263238"/>
    <path id="Path_1517" data-name="Path 1517" d="M245.667,381.529a7.493,7.493,0,1,1,8.929-7.093h-1.38a6.111,6.111,0,1,0-7.286,5.768Z" transform="translate(-71.287 -70.458)" fill="#263238"/>
    <path id="Path_1518" data-name="Path 1518" d="M247.887,374.159a7.493,7.493,0,1,1,8.929-7.079h-1.38a6.114,6.114,0,1,0-7.286,5.768Z" transform="translate(-70.443 -73.259)" fill="#263238"/>
    <path id="Path_1519" data-name="Path 1519" d="M250.127,366.8a7.494,7.494,0,1,1,8.929-7.079h-1.38a6.113,6.113,0,1,0-7.287,5.782Z" transform="translate(-69.592 -76.056)" fill="#263238"/>
    <path id="Path_1520" data-name="Path 1520" d="M252.367,359.439a7.494,7.494,0,1,1,8.929-7.079h-1.38a6.111,6.111,0,1,0-7.286,5.782Z" transform="translate(-68.74 -78.853)" fill="#263238"/>
    <path id="Path_1521" data-name="Path 1521" d="M254.607,352.086a7.5,7.5,0,1,1,8.929-7.093h-1.38a6.088,6.088,0,1,0-7.273,5.782Z" transform="translate(-67.889 -81.644)" fill="#263238"/>
    <path id="Path_1522" data-name="Path 1522" d="M256.85,344.719a7.493,7.493,0,0,1,1.38-14.849h.276a7.507,7.507,0,0,1,7.217,7.756h-1.38a6.111,6.111,0,1,0-7.286,5.768Z" transform="translate(-67.041 -84.447)" fill="#263238"/>
    <path id="Path_1523" data-name="Path 1523" d="M259.087,337.359a7.493,7.493,0,1,1,8.929-7.093h-1.38a6.113,6.113,0,1,0-7.286,5.768Z" transform="translate(-66.187 -87.243)" fill="#263238"/>
    <path id="Path_1524" data-name="Path 1524" d="M261.327,329.989a7.494,7.494,0,1,1,8.929-7.079h-1.38a6.113,6.113,0,1,0-7.286,5.782Z" transform="translate(-65.336 -90.044)" fill="#263238"/>
    <path id="Path_1525" data-name="Path 1525" d="M263.567,322.629a7.494,7.494,0,1,1,8.929-7.079h-1.38a6.113,6.113,0,1,0-7.286,5.782Z" transform="translate(-64.484 -92.841)" fill="#263238"/>
    <path id="Path_1526" data-name="Path 1526" d="M241.156,396.246a7.493,7.493,0,1,1,8.97-7.121h-1.38a6.11,6.11,0,1,0-7.286,5.782Z" transform="translate(-72.986 -64.862)" fill="#263238"/>
    <path id="Path_1527" data-name="Path 1527" d="M250.758,412.066c1.532-3.905,18.051-62.018,25.6-85.878a10.709,10.709,0,0,1,13.165-6.734L374.38,344.68a10.005,10.005,0,0,1,6.514,12.3L343.385,486.9a10.019,10.019,0,0,1-12.227,6.9L244.686,470.44a10.019,10.019,0,0,1-7.01-12.42l12.889-45.43Z" transform="translate(-72.169 -88.575)" fill="#fff"/>
    <path id="Path_1528" data-name="Path 1528" d="M283.186,317.322a6.583,6.583,0,0,0-7.99,4.43c-6.307,20.7-26.689,87.368-28.207,91.522L231.96,462.526a6.555,6.555,0,0,0,4.623,8.28l93.165,24.178a6.583,6.583,0,0,0,7.976-4.54l40.586-140.761a6.569,6.569,0,0,0-4.609-8.17Z" transform="translate(-74.306 -89.301)" fill="#e0e0e0"/>
    <path id="Path_1529" data-name="Path 1529" d="M283.272,317.351l1.38.317,3.85.994,14.752,3.85,54.372,14.449,8.8,2.346,4.554,1.214,2.3.621a7.7,7.7,0,0,1,2.318.9,6.9,6.9,0,0,1,3.05,3.961,6.706,6.706,0,0,1,.248,2.567,14.349,14.349,0,0,1-.593,2.5l-2.843,9.895c-3.864,13.414-7.976,27.752-12.323,42.78s-8.9,30.926-13.634,47.348q-3.533,12.31-7.217,25.047-1.822,6.362-3.685,12.807l-.469,1.615a7.037,7.037,0,0,1-.718,1.615,6.9,6.9,0,0,1-2.512,2.456,7.011,7.011,0,0,1-5.175.676l-1.642-.428-51.212-13.317-24.343-6.334-11.8-3.077-2.912-.759a11.149,11.149,0,0,1-2.9-1.007,6.9,6.9,0,0,1-3.409-4.954,7.121,7.121,0,0,1,.207-3.05c.29-.925.58-1.863.856-2.76l1.7-5.52c1.118-3.657,2.222-7.273,3.312-10.819l6.334-20.7L255.4,385.455c7.038-22.674,12.724-41.014,16.671-53.71.994-3.174,1.863-5.989,2.636-8.432a12.944,12.944,0,0,1,1.3-3.3,6.458,6.458,0,0,1,2.125-2.042,6.611,6.611,0,0,1,3.836-.938,5.522,5.522,0,0,1,1.38.248,8.423,8.423,0,0,0-1.38-.166,6.652,6.652,0,0,0-3.754.98,6.43,6.43,0,0,0-2.042,2.015,12.933,12.933,0,0,0-1.256,3.271l-2.567,8.446c-3.892,12.71-9.508,31.078-16.45,53.82-3.478,11.344-7.3,23.791-11.385,37.136q-3.05,10.019-6.293,20.7-1.628,5.341-3.3,10.833c-.566,1.822-1.118,3.671-1.684,5.52-.29.925-.566,1.863-.856,2.76a6.431,6.431,0,0,0-.193,2.76,6.21,6.21,0,0,0,3.091,4.471,10.639,10.639,0,0,0,2.76.938l2.912.759,11.813,3.064,24.343,6.32,51.212,13.3a12.577,12.577,0,0,0,3.229.621,6.182,6.182,0,0,0,5.313-3.008,12.764,12.764,0,0,0,1.1-3.064c1.242-4.292,2.47-8.57,3.7-12.806q3.671-12.71,7.217-25.033c4.747-16.408,9.315-32.251,13.676-47.334s8.5-29.408,12.42-42.78l2.857-9.895a14.271,14.271,0,0,0,.58-2.387,6.485,6.485,0,0,0-.221-2.36,6.375,6.375,0,0,0-2.76-3.643,7.455,7.455,0,0,0-2.18-.842l-2.3-.621-4.554-1.214-8.8-2.374-54.3-14.67-14.766-4.016-3.823-1.076C283.727,317.5,283.272,317.351,283.272,317.351Z" transform="translate(-74.391 -89.33)" fill="#263238"/>
    <g id="Group_43" data-name="Group 43" transform="translate(160.346 360.419)" opacity="0.3">
      <path id="Path_1530" data-name="Path 1530" d="M289.03,417.45l-55.2-4.25c.7,4.14,3.905,7.383,7.59,9.26a40.465,40.465,0,0,0,11.923,3.284l18.754,3.119c2.387.4,4.913.856,6.693,2.5s2.581,4.513,4.071,6.652c2.47,3.505,6.9,4.954,11.04,6.169a487.378,487.378,0,0,0,49.418,12.241c4.623.842,9.425,1.587,14.007.469s8.915-4.526,9.66-9.177Z" transform="translate(-233.83 -413.2)"/>
    </g>
    <path id="Path_1531" data-name="Path 1531" d="M284.857,319c.179,0-10.267,33.948-23.35,75.707s-23.833,75.556-24.026,75.5,10.267-33.962,23.35-75.721S284.663,318.917,284.857,319Z" transform="translate(-72.098 -88.578)" fill="#263238"/>
    <rect id="Rectangle_21" data-name="Rectangle 21" width="56.084" height="28.069" transform="translate(223.527 261.879) rotate(16.63)" fill="#fff"/>
    <path id="Path_1532" data-name="Path 1532" d="M297.668,394.259s-13.635-18.161-18.561-22.287-25.351-.828-25.351-.828l-8.86,9.329s1.739,7.093,10.019,3.588l2.3-1.739h9.467l5.879,6.9-18.409-.386s-9.067-5.893-11.137-5.893-7.038,3.988-3.436,11.04c0,0-6.9,2.222-4.513,11.62,0,0-5.782,1.587-.511,12.724l.662,1.27s-6.044,2.87-2.07,9.232,14.007,8.28,17.029,8.114,57.436,7.852,57.436,7.852l14.7-38.226Z" transform="translate(-74.256 -69.237)" fill="#ffbf9d"/>
    <path id="Path_1533" data-name="Path 1533" d="M254.275,396.83a7.81,7.81,0,0,1-2.912-.138,21.169,21.169,0,0,1-12.2-6.734,8.281,8.281,0,0,1-1.684-2.387,27.311,27.311,0,0,0,16.795,9.26Z" transform="translate(-72.097 -62.52)" fill="#ff9a6c"/>
    <path id="Path_1534" data-name="Path 1534" d="M247.016,406.024a6.7,6.7,0,0,1-2.456-.718,22.868,22.868,0,0,1-9.66-7.549,7.08,7.08,0,0,1-1.27-2.208,53.726,53.726,0,0,0,6.031,6.141A49.991,49.991,0,0,0,247.016,406.024Z" transform="translate(-73.56 -59.488)" fill="#ff9a6c"/>
    <path id="Path_1535" data-name="Path 1535" d="M246.971,413.164a17.457,17.457,0,0,1-7.2-2.47,17.72,17.72,0,0,1-5.948-4.761c.152-.166,2.65,2.153,6.293,4.14S247.027,412.929,246.971,413.164Z" transform="translate(-73.488 -55.546)" fill="#ff9a6c"/>
    <path id="Path_1536" data-name="Path 1536" d="M418.751,411.282l-59.134-9.2L290.107,388.94,273.85,443.588s83.077,24.357,105.833,27.352c24.316,3.2,33.741,0,41.4-15.981C426.024,444.775,422.974,424.337,418.751,411.282Z" transform="translate(-58.276 -62)" fill="url(#linear-gradient)"/>
    <path id="Path_1537" data-name="Path 1537" d="M363.777,467.922a1.8,1.8,0,0,1-.442-.083l-1.3-.317-5.009-1.3-18.713-4.94-64.46-17.25-.345-.083.11-.345c3.243-10.916,6.748-22.715,10.364-34.914l5.879-19.734.1-.317.317.069,76.135,15.07,22.494,4.54,6.058,1.242,1.559.345.524.138a3.209,3.209,0,0,1-.538,0l-1.573-.276-6.086-1.132-22.536-4.319-76.177-14.849.4-.248c-1.877,6.348-3.85,12.986-5.865,19.734-3.629,12.213-7.148,24.012-10.391,34.914l-.248-.428L338.426,460.9l18.658,5.134,4.982,1.38,1.283.373Z" transform="translate(-58.405 -62.114)" fill="#263238"/>
  </g>
</svg>
